<svg width="483" height="231" viewBox="0 0 483 231" fill="none" xmlns="http://www.w3.org/2000/svg">
<path d="M200.578 25.7137C208.883 25.7213 216.865 28.9364 222.856 34.6879C224.383 36.1062 225.745 37.6916 226.917 39.4144C228.613 42.0134 229.84 44.8903 230.54 47.9138C231.652 47.1184 232.828 46.4167 234.055 45.816C234.803 45.3785 235.6 44.9709 236.385 44.597L236.426 44.5783C238.457 43.6296 240.575 42.8783 242.749 42.3348H242.813C245.001 41.8117 247.235 41.5048 249.484 41.4186H249.529C249.902 41.4186 250.276 41.3999 250.628 41.3999C252.507 41.4016 254.383 41.558 256.237 41.8673C258.452 42.2486 260.624 42.8499 262.721 43.6622H262.751C266.924 45.2803 270.729 47.722 273.939 50.8416L273.961 50.8641C278.632 55.4379 281.856 61.2827 283.234 67.673C284.612 74.0632 284.083 80.7175 281.713 86.8097C281.021 88.5113 280.213 90.163 279.293 91.7531L279.667 91.8091C281.813 92.1548 283.919 92.7096 285.957 93.4656H285.99C290.055 94.9939 293.768 97.3289 296.907 100.33C300.045 103.331 302.544 106.936 304.253 110.928V110.958C306.728 116.766 307.443 123.173 306.308 129.383C305.173 135.593 302.239 141.333 297.87 145.89C296.451 147.418 294.864 148.78 293.14 149.951C292.118 150.629 291.045 151.228 289.931 151.742C288.234 152.541 286.458 153.162 284.633 153.597C285.429 154.707 286.131 155.881 286.731 157.108C287.168 157.856 287.576 158.652 287.946 159.438L287.968 159.479C288.917 161.51 289.668 163.627 290.212 165.802V165.866C290.738 168.047 291.048 170.275 291.139 172.518V172.559C291.288 177.065 290.525 181.555 288.896 185.758V185.788C287.277 189.96 284.835 193.764 281.716 196.973L281.69 196.995C278.884 199.868 275.58 202.207 271.938 203.898C271.583 204.066 271.224 204.227 270.861 204.376C266.859 206.067 262.567 206.964 258.222 207.016H257.848C253.709 207.015 249.606 206.246 245.748 204.747C244.046 204.057 242.394 203.248 240.805 202.327C240.805 202.436 240.752 202.701 240.749 202.701C240.403 204.847 239.848 206.953 239.092 208.991C239.094 209.002 239.094 209.013 239.092 209.024C236.786 215.16 232.66 220.445 227.269 224.172C225.772 225.211 224.19 226.119 222.538 226.887C222.236 227.029 221.925 227.167 221.615 227.302H221.585C217.662 228.966 213.45 229.842 209.189 229.878H208.946C200.641 229.871 192.659 226.655 186.668 220.904C185.141 219.486 183.779 217.9 182.607 216.178C180.91 213.578 179.684 210.702 178.983 207.678C177.872 208.473 176.697 209.174 175.468 209.772C174.721 210.213 173.92 210.625 173.139 210.995H173.098C171.067 211.944 168.949 212.695 166.775 213.238H166.711C164.523 213.767 162.289 214.08 160.04 214.173H159.999C159.625 214.173 159.251 214.192 158.896 214.192C157.017 214.19 155.141 214.034 153.287 213.725C151.072 213.351 148.9 212.756 146.803 211.948H146.773C142.597 210.325 138.792 207.876 135.585 204.747L135.563 204.724C130.892 200.151 127.668 194.307 126.29 187.917C124.911 181.528 125.441 174.874 127.811 168.782C128.501 167.08 129.31 165.428 130.231 163.839L129.857 163.783C127.711 163.437 125.605 162.882 123.567 162.126H123.534C119.456 160.592 115.732 158.245 112.589 155.227C109.46 152.23 106.968 148.632 105.263 144.649V144.619C102.792 138.812 102.081 132.408 103.217 126.201C104.353 119.994 107.287 114.257 111.654 109.702C113.072 108.175 114.658 106.813 116.38 105.641C117.408 104.968 118.486 104.374 119.604 103.865C121.298 103.073 123.07 102.458 124.891 102.029C124.095 100.92 123.394 99.7451 122.797 98.5174C122.356 97.7695 121.948 96.9731 121.578 96.1916L121.555 96.1467C120.607 94.1157 119.855 91.9983 119.312 89.8236C119.312 89.8236 119.312 89.7825 119.312 89.76C118.784 87.5672 118.474 85.3278 118.385 83.0742V83.0331C118.236 78.5282 118.999 74.0398 120.628 69.8371V69.8072C122.246 65.6339 124.688 61.8291 127.808 58.6193L127.83 58.5969C130.638 55.7262 133.943 53.3887 137.586 51.6979C137.937 51.5296 138.3 51.3689 138.663 51.2193C142.661 49.5296 146.95 48.633 151.29 48.5794H151.664C155.805 48.5798 159.909 49.3495 163.768 50.8491C165.47 51.5391 167.122 52.3475 168.712 53.2684C168.712 53.16 168.764 52.8945 168.768 52.8945C169.114 50.7503 169.669 48.645 170.424 46.6088V46.5714C172.727 40.434 176.853 35.1482 182.248 31.4235C183.746 30.3835 185.331 29.474 186.985 28.7051C187.288 28.563 187.599 28.4246 187.909 28.29H187.939C191.861 26.6254 196.074 25.75 200.335 25.7137H200.578ZM200.578 24.5919H200.327C195.918 24.6259 191.558 25.528 187.498 27.2468H187.479H187.46C187.139 27.3851 186.821 27.531 186.507 27.6731C182.764 29.4215 179.377 31.8466 176.515 34.8263C173.399 38.0845 170.975 41.9399 169.388 46.16V46.1825C168.747 47.9092 168.247 49.6849 167.893 51.4923C166.694 50.8563 165.462 50.2846 164.202 49.7797C160.204 48.2307 155.952 47.4407 151.664 47.4501H151.29C146.798 47.5039 142.359 48.431 138.221 50.1798C137.848 50.3368 137.474 50.5051 137.1 50.6733C133.33 52.4222 129.909 54.8408 127.004 57.8116H126.981C123.751 61.1283 121.223 65.0618 119.548 69.3772V69.3997C117.87 73.7554 117.093 78.406 117.263 83.0704V83.1228C117.354 85.4427 117.671 87.7483 118.209 90.0068L118.228 90.0779C118.785 92.3243 119.56 94.511 120.542 96.6066L120.568 96.6665C120.942 97.4555 121.357 98.2519 121.806 99.0297C122.188 99.8194 122.614 100.587 123.081 101.329C121.731 101.733 120.411 102.232 119.132 102.825C117.965 103.363 116.84 103.988 115.767 104.695C113.977 105.912 112.329 107.327 110.854 108.913C104.836 115.178 101.501 123.544 101.558 132.231C101.592 136.64 102.494 140.999 104.213 145.06V145.083L105.256 144.649L104.22 145.098C105.098 147.144 106.178 149.098 107.443 150.931C111.307 156.508 116.777 160.777 123.126 163.17H123.171C124.896 163.811 126.671 164.311 128.477 164.665C127.841 165.864 127.269 167.096 126.764 168.356C124.313 174.653 123.765 181.532 125.19 188.138C126.614 194.744 129.948 200.786 134.778 205.513L134.804 205.539C138.118 208.768 142.049 211.295 146.362 212.969H146.384C148.554 213.805 150.801 214.422 153.093 214.813C155.011 215.131 156.952 215.293 158.896 215.295C159.27 215.295 159.644 215.295 160.018 215.276H160.063C162.385 215.188 164.693 214.871 166.954 214.33H167.018C169.266 213.77 171.455 212.993 173.554 212.012L173.614 211.986C174.399 211.612 175.199 211.197 175.977 210.748C176.766 210.367 177.532 209.941 178.273 209.473C179.026 212.062 180.161 214.524 181.638 216.78C182.856 218.57 184.271 220.218 185.856 221.693C192.063 227.66 200.337 230.995 208.946 231H209.197C213.606 230.966 217.965 230.064 222.026 228.345H222.049C222.37 228.207 222.692 228.061 223.002 227.919C228.812 225.215 233.717 220.891 237.129 215.467C238.322 213.563 239.324 211.547 240.121 209.447V209.428C240.761 207.699 241.261 205.921 241.616 204.111C242.815 204.747 244.047 205.319 245.307 205.823C249.31 207.371 253.568 208.157 257.86 208.142H258.234C262.726 208.088 267.164 207.161 271.302 205.412C271.676 205.255 272.05 205.087 272.424 204.919C276.194 203.17 279.615 200.751 282.52 197.78L282.543 197.762C285.772 194.445 288.301 190.511 289.976 186.196V186.177C291.651 181.826 292.428 177.181 292.261 172.521V172.477C292.171 170.153 291.853 167.843 291.311 165.581V165.548V165.514C290.751 163.269 289.976 161.082 288.997 158.985L288.97 158.925C288.597 158.14 288.181 157.34 287.736 156.562C287.351 155.774 286.924 155.006 286.458 154.263C287.808 153.859 289.128 153.359 290.406 152.767C291.574 152.229 292.698 151.604 293.772 150.897C295.562 149.679 297.21 148.265 298.685 146.679C303.21 141.968 306.252 136.031 307.432 129.606C308.613 123.182 307.881 116.551 305.326 110.539V110.52V110.502C304.449 108.454 303.367 106.5 302.099 104.669C300.823 102.824 299.364 101.111 297.747 99.5569C294.493 96.4424 290.643 94.0181 286.428 92.4299L286.375 92.4112C284.652 91.7723 282.88 91.2721 281.077 90.9155C281.713 89.7165 282.285 88.4846 282.789 87.2248C285.241 80.9274 285.789 74.0485 284.364 67.4425C282.939 60.8366 279.605 54.7948 274.776 50.0676L274.75 50.0414C271.436 46.8127 267.505 44.2857 263.192 42.6115H263.173C261.007 41.7776 258.764 41.1614 256.476 40.7717C254.558 40.4531 252.617 40.2918 250.673 40.2894C250.299 40.2894 249.925 40.2894 249.551 40.2894H249.487C247.168 40.3802 244.864 40.6983 242.607 41.2392H242.54C240.293 41.7985 238.105 42.5737 236.007 43.5538L235.951 43.5799C235.166 43.9539 234.366 44.3689 233.588 44.8139C232.799 45.1994 232.032 45.6263 231.288 46.0927C230.536 43.5033 229.402 41.0406 227.923 38.7862C226.704 36.9966 225.289 35.3486 223.705 33.8728C217.485 27.9066 209.196 24.5805 200.578 24.5919ZM253.473 86.6078C252.638 86.9593 251.784 87.2651 250.916 87.5239C250.097 87.8044 249.891 88.3653 250.187 89.4796C250.763 91.6783 255.47 96.3299 262.294 95.1782C266.453 94.479 270.024 91.0912 271.785 88.5971C272.735 87.1115 273.547 85.5419 274.212 83.9081C275.384 80.8829 275.971 77.6621 275.939 74.4178C275.863 67.7082 273.126 61.3033 268.33 56.6113C265.896 54.2381 263.011 52.3778 259.845 51.1408C258.253 50.5241 256.603 50.0681 254.921 49.7797C253.227 49.4968 251.51 49.3815 249.794 49.4356C248.071 49.5044 246.359 49.741 244.682 50.1424C243.011 50.558 241.383 51.1341 239.821 51.8624C239.121 52.194 238.439 52.5567 237.776 52.9506L237.668 53.0104C233.031 55.1717 227.99 60.8629 224.827 67.2795C223.155 69.8745 220.923 73.8307 214.155 77.0016C209.346 79.2452 204.257 80.3221 199.269 78.9535C196.454 78.192 193.838 76.8278 191.602 74.9554C189.366 73.0831 187.564 70.7473 186.32 68.1096C185.903 67.214 185.555 66.2877 185.28 65.3388C184.584 63.3877 184.335 61.3053 184.551 59.245C184.767 57.1848 185.443 55.1994 186.529 53.4353C187.615 51.6713 189.084 50.1737 190.826 49.053C192.568 47.9323 194.54 47.2171 196.595 46.9602C196.967 46.9017 197.341 46.8643 197.717 46.8481C201.216 46.672 204.647 47.8581 207.29 50.1573L207.477 50.3219C208.897 51.5789 210.042 53.1154 210.842 54.8352C211.943 57.2962 212.341 60.0144 211.99 62.6876C211.934 63.2074 212.487 63.6038 213.388 63.7272C215.539 64.0226 221.368 61.5771 222.856 55.1268C223.765 51.2081 221.907 46.3956 220.239 43.8828C219.39 42.654 218.406 41.5251 217.303 40.5175C213.298 36.6488 208.076 34.2864 202.526 33.8317C196.976 33.377 191.44 34.8582 186.858 38.0234C184.176 39.8778 181.895 42.2549 180.154 45.0121C179.282 46.3995 178.551 47.87 177.97 49.402C176.807 52.4898 176.29 55.7836 176.452 59.0792C176.542 60.6662 176.723 62.2468 176.994 63.8132C177.442 66.4151 178.239 68.9445 179.365 71.3329C181.081 74.9789 183.568 78.209 186.655 80.7998C189.742 83.3905 193.354 85.2803 197.242 86.3386C200.7 87.3008 204.316 87.5606 207.875 87.1027C211.435 86.6448 214.867 85.4784 217.969 83.6725C219.246 82.9357 220.473 82.115 221.641 81.2158C221.788 82.1417 221.984 83.0591 222.228 83.9641C222.295 84.2221 222.37 84.4802 222.441 84.7382C222.998 86.7013 223.72 88.8065 224.438 91.2894C226.237 97.5302 227.055 101.423 224.569 105.895C222.482 109.653 218.627 112.73 214.473 114.742C214.284 114.796 214.101 114.865 213.923 114.948C213.714 115.045 213.511 115.154 213.314 115.273C210.06 116.683 206.71 117.434 203.965 117.337C202.731 117.296 200.694 117.038 199.628 115.894C199.228 115.067 198.794 114.249 198.357 113.422C195.447 107.937 191.499 102.608 186.911 100.062C180.711 96.6253 174.945 97.2647 163.23 100.955C157.026 102.907 150.849 101.655 146.777 99.628C145.767 99.1269 144.829 98.6595 143.961 98.1697C141.895 97.1334 140.107 95.6178 138.747 93.7495C137.386 91.8812 136.492 89.7145 136.14 87.4302C135.787 85.146 135.986 82.8106 136.721 80.6191C137.455 78.4276 138.703 76.4436 140.361 74.8328C142.018 73.222 144.037 72.0313 146.249 71.3599C148.46 70.6886 150.8 70.5562 153.074 70.9738C155.347 71.3914 157.487 72.3469 159.316 73.7605C161.144 75.174 162.608 77.0046 163.585 79.0993C163.936 79.9347 164.242 80.7885 164.501 81.657C164.778 82.4759 165.342 82.6816 166.457 82.4049C168.655 81.829 173.307 77.1213 172.155 70.2971C171.456 66.139 168.068 62.568 165.574 60.8068C164.089 59.8564 162.519 59.0441 160.885 58.38C157.86 57.2072 154.639 56.621 151.395 56.6525C147.22 56.6937 143.121 57.7718 139.465 59.79C135.81 61.8081 132.714 64.703 130.455 68.2143C129.526 69.6314 128.739 71.1369 128.107 72.7089C126.866 75.9113 126.288 79.3317 126.405 82.7638C126.474 84.4866 126.711 86.1986 127.112 87.8754C127.528 89.5473 128.104 91.1752 128.832 92.7365C129.164 93.437 129.526 94.1188 129.92 94.7819L129.976 94.8903C132.138 99.527 137.829 104.568 144.245 107.731C146.84 109.402 150.797 111.635 153.968 118.403C156.211 123.212 157.288 128.301 155.919 133.289C155.158 136.104 153.794 138.72 151.921 140.956C150.049 143.192 147.713 144.994 145.076 146.238C144.18 146.655 143.254 147.003 142.305 147.278C140.354 147.974 138.271 148.223 136.211 148.007C134.151 147.791 132.165 147.115 130.401 146.029C128.637 144.943 127.14 143.474 126.019 141.732C124.898 139.99 124.183 138.018 123.926 135.963C123.866 135.591 123.828 135.217 123.814 134.841C123.638 131.342 124.824 127.911 127.123 125.268C127.179 125.205 127.232 125.141 127.288 125.081C128.545 123.661 130.081 122.515 131.801 121.716C134.262 120.615 136.98 120.217 139.654 120.568C140.173 120.624 140.57 120.071 140.693 119.169C140.989 117.019 138.543 111.19 132.093 109.702C128.17 108.793 123.362 110.651 120.849 112.319C119.62 113.168 118.491 114.152 117.483 115.254C113.615 119.26 111.252 124.481 110.798 130.031C110.343 135.582 111.824 141.118 114.989 145.7C116.844 148.382 119.221 150.663 121.978 152.404C124.761 154.16 127.873 155.33 131.124 155.841C132.749 156.086 134.393 156.174 136.034 156.102C137.622 156.012 139.204 155.831 140.772 155.56C143.375 155.11 145.907 154.314 148.299 153.193C151.945 151.477 155.176 148.989 157.766 145.901C160.357 142.814 162.247 139.201 163.305 135.312C164.267 131.855 164.526 128.24 164.069 124.681C163.611 121.121 162.444 117.69 160.638 114.589C159.9 113.312 159.078 112.085 158.178 110.917C159.105 110.771 160.024 110.575 160.93 110.33L161.704 110.117C163.667 109.559 165.772 108.838 168.255 108.12C174.496 106.321 178.389 105.502 182.857 107.989C186.619 110.076 189.696 113.931 191.708 118.085C191.762 118.273 191.831 118.457 191.914 118.635C192.011 118.844 192.12 119.047 192.239 119.244C193.649 122.497 194.4 125.848 194.303 128.592C194.262 129.826 194.004 131.864 192.856 132.93C192.033 133.33 191.215 133.764 190.388 134.201C184.903 137.11 179.574 141.055 177.028 145.647C173.588 151.847 174.231 157.613 177.921 169.328C179.873 175.532 178.621 181.709 176.594 185.8C176.093 186.809 175.625 187.744 175.136 188.615C174.099 190.681 172.584 192.469 170.715 193.83C168.847 195.191 166.68 196.084 164.396 196.437C162.112 196.789 159.777 196.59 157.585 195.856C155.394 195.121 153.41 193.873 151.799 192.216C150.188 190.558 148.997 188.54 148.326 186.328C147.655 184.116 147.522 181.776 147.94 179.503C148.357 177.23 149.313 175.089 150.726 173.261C152.14 171.432 153.971 169.968 156.065 168.992C156.901 168.64 157.754 168.334 158.623 168.075C159.442 167.795 159.648 167.234 159.371 166.12C158.795 163.921 154.087 159.269 147.263 160.421C143.105 161.12 139.534 164.508 137.773 167.002C136.822 168.488 136.01 170.058 135.346 171.691C134.173 174.717 133.587 177.937 133.618 181.182C133.687 187.884 136.412 194.285 141.194 198.981C143.63 201.349 146.517 203.206 149.682 204.44C151.276 205.056 152.927 205.512 154.611 205.801C156.304 206.084 158.021 206.199 159.737 206.145C161.46 206.076 163.172 205.84 164.849 205.438C166.521 205.023 168.149 204.447 169.71 203.718C170.41 203.384 171.092 203.021 171.755 202.63L171.856 202.582C176.493 200.42 181.534 194.729 184.697 188.312C186.368 185.717 188.601 181.761 195.369 178.59C200.178 176.347 205.267 175.27 210.255 176.638C213.07 177.4 215.686 178.764 217.922 180.636C220.158 182.509 221.96 184.845 223.204 187.482C223.621 188.378 223.969 189.304 224.244 190.253C224.94 192.204 225.189 194.287 224.973 196.347C224.757 198.407 224.081 200.393 222.995 202.157C221.908 203.921 220.44 205.418 218.698 206.539C216.956 207.66 214.984 208.375 212.928 208.632C212.557 208.69 212.182 208.728 211.807 208.744C208.308 208.92 204.877 207.734 202.234 205.435L202.047 205.27C200.627 204.013 199.481 202.477 198.682 200.757C197.581 198.296 197.183 195.578 197.534 192.904C197.59 192.385 197.037 191.988 196.135 191.865C193.985 191.569 188.156 194.015 186.668 200.446C185.759 204.365 187.617 209.178 189.285 211.69C190.132 212.926 191.117 214.061 192.22 215.074C194.8 217.561 197.901 219.443 201.298 220.582C204.696 221.721 208.304 222.089 211.862 221.659C215.419 221.229 218.836 220.013 221.864 218.098C224.893 216.182 227.457 213.617 229.37 210.587C231.129 207.802 232.299 204.687 232.81 201.434C233.056 199.808 233.144 198.163 233.072 196.52C232.981 194.933 232.8 193.353 232.53 191.786C232.079 189.183 231.282 186.651 230.159 184.259C228.442 180.613 225.955 177.382 222.867 174.791C219.78 172.201 216.167 170.311 212.278 169.253C208.819 168.295 205.203 168.038 201.644 168.5C198.085 168.962 194.654 170.132 191.555 171.942C190.277 172.679 189.05 173.501 187.883 174.402C187.736 173.475 187.54 172.556 187.296 171.65L187.083 170.876C186.525 168.913 185.804 166.808 185.086 164.325C183.284 158.084 182.468 154.192 184.955 149.719C187.041 145.961 190.897 142.884 195.051 140.872C195.239 140.818 195.423 140.749 195.601 140.667C195.81 140.569 196.013 140.461 196.21 140.341C199.463 138.932 202.814 138.18 205.558 138.277C206.792 138.318 208.83 138.576 209.896 139.721C210.296 140.547 210.73 141.366 211.167 142.192C214.076 147.678 218.021 153.006 222.609 155.553C228.813 158.989 234.575 158.35 246.294 154.659C252.498 152.707 258.675 153.96 262.766 155.986C263.775 156.487 264.71 156.955 265.581 157.445C268.397 158.858 270.775 162.306 272.211 165.383C275.576 172.637 272.454 180.142 265.207 183.522C263.483 184.326 261.617 184.782 259.717 184.865C257.816 184.947 255.918 184.655 254.13 184.004C252.343 183.353 250.701 182.356 249.299 181.07C247.896 179.785 246.761 178.236 245.958 176.511C245.606 175.676 245.3 174.822 245.041 173.954C244.761 173.135 244.2 172.929 243.086 173.224C240.887 173.8 236.232 178.508 237.387 185.332C238.086 189.49 241.474 193.061 243.968 194.823C245.454 195.773 247.023 196.585 248.657 197.249C251.682 198.422 254.903 199.008 258.148 198.977C264.855 198.898 271.257 196.16 275.947 191.364C278.315 188.927 280.172 186.041 281.406 182.876C282.022 181.282 282.478 179.631 282.767 177.947C283.05 176.254 283.165 174.537 283.111 172.821C283.042 171.098 282.806 169.386 282.404 167.709C281.989 166.037 281.413 164.409 280.684 162.848C280.35 162.147 279.986 161.466 279.592 160.803C279.592 160.769 279.566 160.735 279.551 160.702C277.39 156.065 271.699 151.024 265.282 147.861C262.687 146.189 258.731 143.957 255.56 137.189C253.316 132.38 252.24 127.291 253.608 122.303C254.37 119.488 255.734 116.872 257.606 114.636C259.479 112.4 261.814 110.598 264.452 109.354C265.348 108.937 266.274 108.589 267.223 108.314C269.174 107.618 271.256 107.369 273.317 107.585C275.377 107.801 277.362 108.477 279.126 109.563C280.89 110.649 282.388 112.118 283.509 113.86C284.629 115.602 285.345 117.574 285.601 119.629C285.66 120.001 285.697 120.375 285.714 120.751C285.89 124.25 284.704 127.681 282.404 130.324C282.348 130.387 282.296 130.451 282.24 130.511C280.982 131.932 279.444 133.077 277.723 133.876C275.262 134.979 272.544 135.377 269.87 135.024C269.35 134.968 268.954 135.521 268.831 136.422C268.535 138.573 270.981 144.402 277.412 145.89C281.331 146.799 286.144 144.941 288.656 143.273C289.892 142.425 291.027 141.441 292.04 140.338C294.183 138.102 295.88 135.479 297.04 132.608C299.155 127.369 299.363 121.554 297.627 116.177C295.892 110.8 292.324 106.203 287.546 103.188C284.761 101.429 281.646 100.259 278.392 99.7476C276.767 99.5017 275.121 99.4141 273.479 99.4859C271.892 99.5764 270.311 99.7575 268.745 100.028C266.144 100.479 263.614 101.276 261.225 102.399C257.579 104.115 254.348 106.603 251.757 109.691C249.167 112.778 247.277 116.391 246.219 120.28C245.261 123.739 245.004 127.354 245.466 130.914C245.928 134.473 247.098 137.904 248.908 141.003C249.645 142.28 250.465 143.507 251.365 144.675C250.439 144.822 249.521 145.018 248.616 145.262L247.842 145.475C245.879 146.032 243.774 146.754 241.291 147.472C235.05 149.271 231.157 150.09 226.685 147.603C222.927 145.516 219.85 141.661 217.838 137.507C217.784 137.319 217.715 137.135 217.633 136.957C217.535 136.752 217.427 136.55 217.307 136.348C215.897 133.095 215.146 129.744 215.243 126.999C215.284 125.766 215.542 123.728 216.686 122.662C217.513 122.262 218.332 121.828 219.158 121.391C224.644 118.481 229.972 114.536 232.519 109.945C235.955 103.745 235.316 97.979 231.625 86.2638C229.673 80.0603 230.926 73.883 232.952 69.811C233.453 68.8014 233.921 67.8665 234.411 66.9953C235.447 64.9294 236.963 63.1414 238.831 61.7807C240.699 60.42 242.866 59.5261 245.15 59.1737C247.434 58.8213 249.77 59.0205 251.961 59.7548C254.153 60.4892 256.137 61.7372 257.747 63.3947C259.358 65.0522 260.549 67.0711 261.22 69.2827C261.892 71.4943 262.024 73.8345 261.606 76.1077C261.189 78.3809 260.233 80.5212 258.82 82.3498C257.406 84.1784 255.576 85.6422 253.481 86.619L253.473 86.6078Z" fill="url(#paint0_radial_3_90)"/>
<g clip-path="url(#clip0_3_90)">
<path d="M84.521 187.243C83.1711 181.453 82.7211 176.366 83.1776 172.124C83.2828 171.124 83.4494 170.132 83.6765 169.153H83.0505C74.7617 169.153 71.038 164.574 69.5544 161.862C66.3817 156.036 61.9308 148.767 55.7224 142.951C55.7387 147.043 55.7224 150.442 55.605 152.176C55.2366 158.093 51.728 162.99 45.9827 165.611C42.4872 167.207 38.183 168.018 32.8224 168.09H12.857V158.653C12.857 156.091 12.8864 153.314 12.919 150.37V149.209C12.9581 145.653 13.1146 141.934 13.2809 137.995C14.0537 119.87 14.9993 97.3081 4.71504 73.5266C4.5357 73.1046 4.34332 72.6499 4.18028 72.169C3.701 70.8152 3.53819 69.3689 3.7044 67.9419C3.87062 66.5149 4.36142 65.1453 5.13893 63.9387C5.32399 63.6604 5.52315 63.3918 5.73564 63.134C3.47107 60.3722 1.82622 57.1534 0.913043 53.6966C-1.18686 45.8687 0.388067 37.6187 5.12915 31.5932C7.41165 28.708 10.18 26.8859 12.5799 25.198C21.5208 18.9108 23.1055 7.29476 23.1055 7.29476C34.4593 14.583 35.4277 19.4996 36.9537 21.4165C37.8635 22.5549 38.9982 21.6455 38.9982 21.6455C52.8497 39.1823 50.352 59.9184 38.9982 66.0617C46.0087 68.0244 48.7803 72.5747 50.1629 77.4193C51.3451 81.619 52.2654 85.8886 52.9182 90.2031C57.8093 85.9309 62.8992 79.8007 68.2696 71.7176C69.8739 69.3035 73.7248 65.2505 81.4821 65.2505C85.483 65.2505 89.3795 66.3561 91.9457 67.2819C94.6782 68.2632 100.424 70.8802 101.076 71.1811L109.133 74.858L105.677 83.0359C100.483 95.2995 92.6688 106.27 82.7864 115.172L83.3276 115.692L90.1393 112.974C96.6607 110.377 102.054 109.114 106.661 109.114C110.978 109.114 114.719 110.298 117.578 112.49C117.343 107.881 119.036 103.536 122.499 100.004C126.19 96.2548 131.903 93.3925 140.015 91.2663L148.513 89.0255L150.57 95.9473C152.194 95.7733 153.828 95.7067 155.461 95.7478C162.162 95.7478 176.144 96.2221 188.861 97.1021C196.504 97.6287 202.367 98.6592 206.795 100.246C207.829 100.613 208.839 101.045 209.821 101.538C209.751 97.9686 210.085 94.403 210.818 90.9097L212.481 82.5747L220.884 83.6607C236.285 85.6529 249.301 91.9368 258.526 101.832C263.993 107.685 268.14 114.717 270.966 122.928C276.079 113.675 284.201 106.461 293.976 102.49C295.914 101.706 297.893 101.032 299.904 100.468C306.015 89.5227 310.782 84.9659 310.782 84.9659C310.782 84.9659 329.173 94.5342 331.794 99.6863C334.68 96.5198 337.663 93.9781 340.233 91.8126C342.29 90.069 344.1 88.5414 345.483 87.0562L346.057 86.402L346.115 86.3202L346.487 85.9146C350.726 81.3022 352.793 76.7062 352.793 71.8681V60.1343C457.518 83.4154 434.35 192.346 361.939 181.77C350.728 179.574 340.561 173.706 333.033 165.087L331.21 165.905C326.212 168.146 321.057 169.327 316.302 169.327C311.085 169.327 303.961 168.097 299.419 161.263C296.484 165.591 288.612 168.316 278.077 169.464C265.034 170.887 252.422 169.693 248.29 165.084C243.553 167.452 238.547 168.623 235.456 168.82C234.772 168.862 234.077 168.882 233.396 168.882C226.806 168.882 220.734 166.919 215.833 163.187C214.743 162.357 213.714 161.448 212.755 160.468C211.386 163.062 208.774 165.902 203.788 167.449C198.349 169.317 188.463 168.784 181.684 168.502C174.804 168.715 164.519 169.546 158.693 167.521C151.239 165.13 149.158 159.736 148.584 156.726C148.428 155.908 148.275 155.029 148.125 154.089C147.505 155.413 146.843 156.701 146.139 157.953C141.005 167.082 133.914 174.953 125.378 180.998C116.717 187.171 106.603 191.564 95.314 194.054L86.559 195.984L84.521 187.243ZM375.308 108.777C372.002 112.784 368.33 116.15 363.358 119.981C357.782 124.233 357.127 125.771 356.761 127.622C354.662 136.968 362.546 146.533 372.087 146.268C381.823 146.458 389.287 136.752 387.412 127.276C386.414 119.938 381.21 113.314 375.308 108.777Z" fill="black"/>
<path d="M142.324 100.066C147.541 117.554 146.66 138.525 138.232 153.488C129.291 169.359 113.832 180.655 93.3641 185.169C91.3848 176.664 91.1827 167.887 96.5889 165.99C107.219 162.254 111.203 160.131 116.805 154.763C116.46 154.505 116.111 154.243 115.752 153.968C113.732 152.415 111.804 150.745 109.977 148.967C102.178 141.395 96.4959 131.902 93.501 121.436C102.778 117.733 111.373 116.396 113.796 121.989C116.822 128.97 119.805 134.688 125.479 139.385C126.881 136.569 130.155 127.181 126.881 113.572C125.73 108.774 128.472 103.716 142.324 100.066ZM188.235 106.176C172.074 105.061 152.999 104.57 151.656 104.999L152.928 114.295C154.062 122.601 155.572 144.96 157.493 155.019C158.471 160.089 166.44 159.961 176.007 159.598C175.929 151.685 173.946 134.495 172.508 123.023L190.286 124.331C189.092 135.159 187.351 152.228 187.266 159.598C196.683 159.951 204.577 159.598 205.158 154.835C206.302 145.424 209.723 116.274 209.788 114.927C210.023 109.425 200.55 107.03 188.235 106.176ZM324.813 111.155C327.32 106.559 323.342 101.963 313.283 96.1861C313.283 96.1861 309.1 101.747 306.817 107.069C306.638 107.485 306.465 107.9 306.292 108.316C303.246 108.896 300.264 109.772 297.387 110.933C291.918 113.161 287.055 116.663 283.2 121.149C274.8 130.962 271.846 144.825 274.855 160.233C283.686 159.372 291.863 158.048 291.407 152.581C290.533 142.038 292.088 131.626 302.079 128.211C301.173 135.735 303.537 151.296 307.743 156.932C310.749 160.962 318.97 161.42 327.51 157.586C317.245 141.538 316.694 126.055 324.813 111.155ZM266.215 159.569C266.216 159.59 266.216 159.612 266.215 159.634C266.215 159.634 249.634 159.634 249.634 153.043C246.001 157.142 238.622 159.5 234.895 159.736C229.786 160.063 224.999 158.728 221.328 155.938C215.103 151.204 212.553 143.331 214.536 135.8C216.714 127.531 225.567 121.381 238.283 118.191C236.467 115.231 230.784 112.496 224.66 111.587C220.16 110.916 217.395 104.295 219.714 92.6892C240.778 95.4108 268.931 108.62 266.215 159.565V159.569ZM244.41 129.801C233.859 131.646 229.323 136.418 228.407 139.7C228.155 140.558 228.177 141.473 228.47 142.318C228.762 143.163 229.31 143.896 230.037 144.413C232.088 145.974 237.52 146.268 241.492 143.043C247.133 138.46 245.092 131.4 244.41 129.804V129.801ZM302.092 155.264C302.091 155.245 302.091 155.227 302.092 155.208V155.264ZM81.3875 126.804C77.4936 122.376 73.1189 118.397 68.3446 114.943C70.4297 113.541 72.442 112.034 74.3737 110.426C84.3695 102.094 92.2373 91.4878 97.3226 79.4899C97.3226 79.4899 91.3327 76.7585 88.8676 75.8687C83.996 74.1088 78.1072 73.3434 75.8247 76.7847C66.3686 91.034 56.6386 101.345 45.5 105.218C44.5903 95.4239 43.6838 87.9067 41.4111 79.9348C40.1264 75.4206 35.7375 73.785 28.2443 73.785C15.3254 73.7719 11.4908 66.2972 13.0429 69.8988C26.4444 100.877 22.2316 129.294 22.0098 149.304C21.9772 152.647 21.9414 155.813 21.9381 158.653V158.98H32.6985C39.9862 158.882 46.2011 157.106 46.5435 151.607C46.7717 147.933 46.5826 134.767 46.4261 126.396C62.3579 132.46 71.9412 147.246 77.5268 157.505C80.1354 162.267 89.0502 159.513 99.579 156.105C97.1693 150.243 91.3816 138.07 81.3875 126.811V126.804Z" fill="url(#paint1_radial_3_90)"/>
<path d="M34.7919 31.2006C34.7843 31.1884 34.773 31.179 34.7596 31.1739C34.7462 31.1688 34.7316 31.1683 34.7178 31.1724C34.7041 31.1764 34.6921 31.185 34.6837 31.1966C34.6753 31.2082 34.6709 31.2223 34.6712 31.2366C34.6712 33.2288 32.3887 34.0106 31.3485 32.3913C30.3997 30.9357 32.3692 27.4846 26.7607 21.6618C24.5891 30.7688 16.1862 32.2507 12.2538 37.2425C6.58341 44.4391 8.38007 57.658 19.0133 61.8713C21.586 62.8887 24.0152 63.484 26.2749 63.5069C25.1313 63.0611 24.1608 62.2583 23.5065 61.2171C21.5794 57.7921 22.0262 53.2288 27.8009 47.2229C27.3672 51.7961 30.129 52.0348 32.1637 54.3018C33.5887 55.8785 34.4691 58.7964 33.2789 61.2204C34.2734 60.4326 35.1575 59.5139 35.907 58.4889C42.6045 49.4833 40.5731 40.167 34.7919 31.2006Z" fill="url(#paint2_linear_3_90)"/>
<path d="M414.065 138.996C411.798 150.122 405.236 159.897 395.811 166.186C386.386 172.476 374.864 174.769 363.759 172.566C352.655 170.363 342.87 163.842 336.541 154.427C330.212 145.012 327.852 133.467 329.978 122.313C330.899 117.578 332.86 113.108 335.72 109.228C338.876 104.904 342.714 101.649 346.099 98.7835C348.776 96.5133 351.195 94.4622 353.142 92.1266C353.141 92.1212 353.141 92.1156 353.142 92.1102C357.606 87.2591 361.861 80.491 361.858 71.8779L369.912 74.9626C373.943 76.5001 377.865 78.3111 381.65 80.383C392.45 86.3268 401.016 94.0533 406.758 103.111C413.853 114.223 416.436 126.971 414.065 138.996ZM396.399 125.941C395.676 121.296 393.983 116.856 391.433 112.912C391.283 112.67 391.107 112.434 390.966 112.195C388.395 108.414 385.265 105.047 381.683 102.212L381.435 102.015L381.393 101.983C378.527 99.7246 375.465 97.7288 372.243 96.0193C371.887 97.2192 371.384 98.3697 370.743 99.4442C369.772 101.086 368.643 102.629 367.372 104.05C364.307 107.55 360.524 110.671 357.841 112.719C351.916 117.243 348.884 120.524 347.837 125.839C346.617 132.252 347.975 138.889 351.615 144.301C355.254 149.713 360.879 153.462 367.263 154.73C373.647 155.997 380.271 154.68 385.691 151.067C391.111 147.453 394.886 141.836 396.193 135.44C396.801 132.309 396.871 129.096 396.399 125.941Z" fill="url(#paint3_linear_3_90)"/>
<path d="M412.213 26.7714C411.747 22.8264 408.401 18.3841 403.181 15.9765C401.551 20.0066 395.241 23.9124 395.815 28.7341C395.943 29.8143 396.283 30.8585 396.813 31.8072C397.344 32.7558 398.056 33.5903 398.908 34.263C399.76 34.9356 400.736 35.4333 401.78 35.7276C402.824 36.0219 403.916 36.1071 404.992 35.9782C406.069 35.8493 407.11 35.509 408.055 34.9765C409.001 34.4441 409.833 33.73 410.503 32.8751C411.174 32.0202 411.67 31.0411 411.963 29.9939C412.257 28.9466 412.342 27.8516 412.213 26.7714ZM406.866 28.4757C406.81 28.8376 406.685 29.1851 406.495 29.4983C406.306 29.8114 406.058 30.0842 405.763 30.3009C405.469 30.5176 405.136 30.6741 404.781 30.7614C404.427 30.8487 404.059 30.8651 403.698 30.8097C403.337 30.7543 402.991 30.6281 402.678 30.4384C402.366 30.2488 402.094 29.9992 401.878 29.7041C401.662 29.409 401.506 29.0741 401.419 28.7185C401.332 28.363 401.316 27.9937 401.371 27.6318C401.603 26.1107 404.873 23.0946 404.873 23.0946C404.873 23.0946 407.097 26.9546 406.866 28.4757ZM412.213 26.7714C411.747 22.8264 408.401 18.3841 403.181 15.9765C401.551 20.0066 395.241 23.9124 395.815 28.7341C395.943 29.8143 396.283 30.8585 396.813 31.8072C397.344 32.7558 398.056 33.5903 398.908 34.263C399.76 34.9356 400.736 35.4333 401.78 35.7276C402.824 36.0219 403.916 36.1071 404.992 35.9782C406.069 35.8493 407.11 35.509 408.055 34.9765C409.001 34.4441 409.833 33.73 410.503 32.8751C411.174 32.0202 411.67 31.0411 411.963 29.9939C412.257 28.9466 412.342 27.8516 412.213 26.7714ZM406.866 28.4757C406.81 28.8376 406.685 29.1851 406.495 29.4983C406.306 29.8114 406.058 30.0842 405.763 30.3009C405.469 30.5176 405.136 30.6741 404.781 30.7614C404.427 30.8487 404.059 30.8651 403.698 30.8097C403.337 30.7543 402.991 30.6281 402.678 30.4384C402.366 30.2488 402.094 29.9992 401.878 29.7041C401.662 29.409 401.506 29.0741 401.419 28.7185C401.332 28.363 401.316 27.9937 401.371 27.6318C401.603 26.1107 404.873 23.0946 404.873 23.0946C404.873 23.0946 407.097 26.9546 406.866 28.4757ZM412.213 26.7714C411.747 22.8264 408.401 18.3841 403.181 15.9765C401.551 20.0066 395.241 23.9124 395.815 28.7341C395.943 29.8143 396.283 30.8585 396.813 31.8072C397.344 32.7558 398.056 33.5903 398.908 34.263C399.76 34.9356 400.736 35.4333 401.78 35.7276C402.824 36.0219 403.916 36.1071 404.992 35.9782C406.069 35.8493 407.11 35.509 408.055 34.9765C409.001 34.4441 409.833 33.73 410.503 32.8751C411.174 32.0202 411.67 31.0411 411.963 29.9939C412.257 28.9466 412.342 27.8516 412.213 26.7714ZM406.866 28.4757C406.81 28.8376 406.685 29.1851 406.495 29.4983C406.306 29.8114 406.058 30.0842 405.763 30.3009C405.469 30.5176 405.136 30.6741 404.781 30.7614C404.427 30.8487 404.059 30.8651 403.698 30.8097C403.337 30.7543 402.991 30.6281 402.678 30.4384C402.366 30.2488 402.094 29.9992 401.878 29.7041C401.662 29.409 401.506 29.0741 401.419 28.7185C401.332 28.363 401.316 27.9937 401.371 27.6318C401.603 26.1107 404.873 23.0946 404.873 23.0946C404.873 23.0946 407.097 26.9546 406.866 28.4757ZM412.213 26.7714C411.747 22.8264 408.401 18.3841 403.181 15.9765C401.551 20.0066 395.241 23.9124 395.815 28.7341C395.943 29.8143 396.283 30.8585 396.813 31.8072C397.344 32.7558 398.056 33.5903 398.908 34.263C399.76 34.9356 400.736 35.4333 401.78 35.7276C402.824 36.0219 403.916 36.1071 404.992 35.9782C406.069 35.8493 407.11 35.509 408.055 34.9765C409.001 34.4441 409.833 33.73 410.503 32.8751C411.174 32.0202 411.67 31.0411 411.963 29.9939C412.257 28.9466 412.342 27.8516 412.213 26.7714ZM406.866 28.4757C406.81 28.8376 406.685 29.1851 406.495 29.4983C406.306 29.8114 406.058 30.0842 405.763 30.3009C405.469 30.5176 405.136 30.6741 404.781 30.7614C404.427 30.8487 404.059 30.8651 403.698 30.8097C403.337 30.7543 402.991 30.6281 402.678 30.4384C402.366 30.2488 402.094 29.9992 401.878 29.7041C401.662 29.409 401.506 29.0741 401.419 28.7185C401.332 28.363 401.316 27.9937 401.371 27.6318C401.603 26.1107 404.873 23.0946 404.873 23.0946C404.873 23.0946 407.097 26.9546 406.866 28.4757ZM412.213 26.7714C411.747 22.8264 408.401 18.3841 403.181 15.9765C401.551 20.0066 395.241 23.9124 395.815 28.7341C395.943 29.8143 396.283 30.8585 396.813 31.8072C397.344 32.7558 398.056 33.5903 398.908 34.263C399.76 34.9356 400.736 35.4333 401.78 35.7276C402.824 36.0219 403.916 36.1071 404.992 35.9782C406.069 35.8493 407.11 35.509 408.055 34.9765C409.001 34.4441 409.833 33.73 410.503 32.8751C411.174 32.0202 411.67 31.0411 411.963 29.9939C412.257 28.9466 412.342 27.8516 412.213 26.7714ZM406.866 28.4757C406.81 28.8376 406.685 29.1851 406.495 29.4983C406.306 29.8114 406.058 30.0842 405.763 30.3009C405.469 30.5176 405.136 30.6741 404.781 30.7614C404.427 30.8487 404.059 30.8651 403.698 30.8097C403.337 30.7543 402.991 30.6281 402.678 30.4384C402.366 30.2488 402.094 29.9992 401.878 29.7041C401.662 29.409 401.506 29.0741 401.419 28.7185C401.332 28.363 401.316 27.9937 401.371 27.6318C401.603 26.1107 404.873 23.0946 404.873 23.0946C404.873 23.0946 407.097 26.9546 406.866 28.4757ZM412.213 26.7714C411.747 22.8264 408.401 18.3841 403.181 15.9765C401.551 20.0066 395.241 23.9124 395.815 28.7341C395.943 29.8143 396.283 30.8585 396.813 31.8072C397.344 32.7558 398.056 33.5903 398.908 34.263C399.76 34.9356 400.736 35.4333 401.78 35.7276C402.824 36.0219 403.916 36.1071 404.992 35.9782C406.069 35.8493 407.11 35.509 408.055 34.9765C409.001 34.4441 409.833 33.73 410.503 32.8751C411.174 32.0202 411.67 31.0411 411.963 29.9939C412.257 28.9466 412.342 27.8516 412.213 26.7714ZM406.866 28.4757C406.81 28.8376 406.685 29.1851 406.495 29.4983C406.306 29.8114 406.058 30.0842 405.763 30.3009C405.469 30.5176 405.136 30.6741 404.781 30.7614C404.427 30.8487 404.059 30.8651 403.698 30.8097C403.337 30.7543 402.991 30.6281 402.678 30.4384C402.366 30.2488 402.094 29.9992 401.878 29.7041C401.662 29.409 401.506 29.0741 401.419 28.7185C401.332 28.363 401.316 27.9937 401.371 27.6318C401.603 26.1107 404.873 23.0946 404.873 23.0946C404.873 23.0946 407.097 26.9546 406.866 28.4757ZM412.213 26.7714C411.747 22.8264 408.401 18.3841 403.181 15.9765C401.551 20.0066 395.241 23.9124 395.815 28.7341C395.943 29.8143 396.283 30.8585 396.813 31.8072C397.344 32.7558 398.056 33.5903 398.908 34.263C399.76 34.9356 400.736 35.4333 401.78 35.7276C402.824 36.0219 403.916 36.1071 404.992 35.9782C406.069 35.8493 407.11 35.509 408.055 34.9765C409.001 34.4441 409.833 33.73 410.503 32.8751C411.174 32.0202 411.67 31.0411 411.963 29.9939C412.257 28.9466 412.342 27.8516 412.213 26.7714ZM406.866 28.4757C406.81 28.8376 406.685 29.1851 406.495 29.4983C406.306 29.8114 406.058 30.0842 405.763 30.3009C405.469 30.5176 405.136 30.6741 404.781 30.7614C404.427 30.8487 404.059 30.8651 403.698 30.8097C403.337 30.7543 402.991 30.6281 402.678 30.4384C402.366 30.2488 402.094 29.9992 401.878 29.7041C401.662 29.409 401.506 29.0741 401.419 28.7185C401.332 28.363 401.316 27.9937 401.371 27.6318C401.603 26.1107 404.873 23.0946 404.873 23.0946C404.873 23.0946 407.097 26.9546 406.866 28.4757ZM412.213 26.7714C411.747 22.8264 408.401 18.3841 403.181 15.9765C401.551 20.0066 395.241 23.9124 395.815 28.7341C395.943 29.8143 396.283 30.8585 396.813 31.8072C397.344 32.7558 398.056 33.5903 398.908 34.263C399.76 34.9356 400.736 35.4333 401.78 35.7276C402.824 36.0219 403.916 36.1071 404.992 35.9782C406.069 35.8493 407.11 35.509 408.055 34.9765C409.001 34.4441 409.833 33.73 410.503 32.8751C411.174 32.0202 411.67 31.0411 411.963 29.9939C412.257 28.9466 412.342 27.8516 412.213 26.7714ZM406.866 28.4757C406.81 28.8376 406.685 29.1851 406.495 29.4983C406.306 29.8114 406.058 30.0842 405.763 30.3009C405.469 30.5176 405.136 30.6741 404.781 30.7614C404.427 30.8487 404.059 30.8651 403.698 30.8097C403.337 30.7543 402.991 30.6281 402.678 30.4384C402.366 30.2488 402.094 29.9992 401.878 29.7041C401.662 29.409 401.506 29.0741 401.419 28.7185C401.332 28.363 401.316 27.9937 401.371 27.6318C401.603 26.1107 404.873 23.0946 404.873 23.0946C404.873 23.0946 407.097 26.9546 406.866 28.4757ZM475.429 18.1257C476.599 14.6059 477.806 7.80834 478.621 3.83057C472.2 4.95258 455.796 6.87932 450.787 4.46518C448.694 8.51818 448.456 14.233 451.713 18.5902C454.492 22.3063 447.638 24.5372 447.002 20.0426C445.241 7.57935 428.233 0.46778 416.292 10.6641C411.763 6.18582 402.209 2.42068 394.935 0C393.705 12.9637 393.35 9.45702 386.238 20.0295C385.609 11.3249 377.637 4.79557 368.718 4.98203C361.848 4.70725 355.718 9.13644 350.961 13.8993C356.859 20.6739 359.399 24.6517 369.1 22.1133C368.956 22.4665 368.474 23.3563 366.951 24.8283C355.679 33.7194 354.15 34.884 351.815 46.2939C363.84 47.4683 380.509 47.7365 394.054 47.1248L393.79 44.9952C399.31 48.4104 407.1 48.7211 412.927 45.692L412.582 47.1313C424.61 48.3057 441.276 48.5772 454.824 47.9655C454.824 47.9655 461.209 49.045 464.57 49.0908C481.608 49.1824 490.213 26.7747 475.429 18.1257ZM443.275 30.638C443.382 30.5234 443.511 30.4313 443.654 30.3668C443.797 30.3023 443.951 30.2668 444.107 30.2622C444.264 30.2576 444.42 30.2842 444.566 30.3402C444.713 30.3963 444.847 30.4808 444.96 30.5889C445.437 31.0403 445.701 32.9344 445.701 32.9344C445.701 32.9344 443.8 32.7773 443.324 32.3259C443.095 32.1082 442.961 31.8084 442.952 31.4921C442.943 31.1758 443.059 30.8687 443.275 30.638ZM382.828 31.0763C382.968 30.4221 384.458 29.2412 384.458 29.2412C384.458 29.2412 385.296 30.9553 385.149 31.5997C385.118 31.7561 385.057 31.9047 384.968 32.0367C384.879 32.1688 384.764 32.2816 384.631 32.3686C384.498 32.4556 384.349 32.515 384.192 32.5432C384.036 32.5715 383.876 32.568 383.721 32.5331C383.566 32.4981 383.419 32.4324 383.29 32.3397C383.161 32.2471 383.051 32.1294 382.968 31.9937C382.885 31.8579 382.829 31.7068 382.805 31.5492C382.781 31.3917 382.789 31.2309 382.828 31.0763ZM358.284 41.5997C358.284 41.5997 359.321 37.3079 363.971 33.8307C366.99 31.5735 373.688 27.0953 374.298 22.6628C374.496 21.2268 374.356 19.9346 373.469 18.7374C372.905 17.9785 371.477 17.1247 369.556 16.9317C368.31 16.8123 367.053 16.9721 365.875 17.3995C364.781 17.786 363.597 17.8369 362.474 17.5456C361.35 17.2543 360.339 16.634 359.569 15.7639L358.284 14.3213C361.679 11.2758 365.921 9.83975 370.225 10.2748C373.812 10.6346 377.01 12.3062 378.817 14.74C379.827 16.075 380.527 17.6197 380.865 19.2611C381.204 20.9024 381.172 22.5989 380.773 24.2264C379.903 27.8444 376.534 31.9301 372.295 35.2307C373.802 35.3714 378.256 35.6724 381.615 35.7312C385.632 35.8032 387.81 38.9762 388.201 42.1199C379.485 42.4045 365.422 42.1559 358.284 41.5834V41.5997ZM405.757 42.4928C401.838 42.955 397.896 41.8392 394.796 39.39C391.695 36.9408 389.69 33.3581 389.219 29.4276C388.648 24.6026 391.615 21.0109 394.015 18.1388C397.602 13.8568 398.766 11.3936 399.288 7.11811C413.309 12.1786 417.906 18.5084 418.783 25.9013C419.24 29.8309 418.125 33.7817 415.683 36.8884C413.242 39.9951 409.672 42.0045 405.757 42.4764V42.4928ZM419.054 42.4372C419.054 42.4372 420.088 38.1486 424.738 34.6714C427.757 32.4142 434.454 27.9327 435.064 23.5002C435.263 22.0675 435.123 20.7721 434.236 19.5748C433.675 18.8159 432.247 17.9621 430.323 17.7691C429.078 17.6497 427.821 17.8095 426.645 18.2369C425.55 18.6233 424.366 18.6741 423.242 18.3828C422.118 18.0915 421.107 17.4714 420.336 16.6013L419.051 15.1587C422.449 12.1165 426.687 10.6772 430.995 11.1122C434.582 11.4753 437.777 13.1437 439.587 15.5807C440.598 16.9153 441.298 18.46 441.637 20.1015C441.975 21.743 441.943 23.4396 441.543 25.0671C440.676 28.6851 437.304 32.7708 433.049 36.0714C434.559 36.2121 439.01 36.5163 442.368 36.5719C446.385 36.6439 448.564 39.8169 448.955 42.9638C440.255 43.2419 426.176 42.9933 419.054 42.4208V42.4372ZM424.46 22.761C424.46 22.761 427.604 22.5843 428.487 23.2189C428.698 23.3693 428.877 23.5597 429.014 23.7794C429.151 23.9992 429.243 24.2438 429.286 24.4994C429.329 24.755 429.321 25.0166 429.263 25.2692C429.206 25.5218 429.099 25.7605 428.949 25.9716C428.799 26.1828 428.609 26.3622 428.39 26.4998C428.171 26.6373 427.927 26.7302 427.672 26.7732C427.418 26.8162 427.157 26.8084 426.905 26.7503C426.653 26.6922 426.415 26.5849 426.205 26.4345C425.315 25.7835 424.46 22.7446 424.46 22.7446V22.761ZM448.208 29.0711C448.282 28.697 448.431 28.3422 448.647 28.0284C448.863 27.7146 449.141 27.4487 449.464 27.2469C449.786 27.0452 450.147 26.912 450.522 26.8556C450.898 26.7992 451.282 26.8208 451.649 26.919C452.016 27.0172 452.36 27.19 452.658 27.4267C452.956 27.6633 453.202 27.9588 453.382 28.2948C453.561 28.6308 453.67 29.0002 453.702 29.3802C453.734 29.7602 453.687 30.1426 453.566 30.5039C453.168 31.9923 449.581 34.6256 449.581 34.6256C449.581 34.6256 447.807 30.5398 448.208 29.0547V29.0711ZM463.25 43.834C458.766 43.4382 454.863 42.1984 451.713 39.9772C455.134 31.6553 459.81 40.4974 467.645 37.1869C472.435 35.1653 473.573 25.4793 464.31 26.4083C460.397 26.8009 459.679 25.6658 459.679 25.6658C461.903 22.1329 464.124 16.9284 464.124 16.9284C458.3 17.0952 452.385 17.2784 453.927 10.0589C454.495 10.5888 464.893 11.0926 472.093 10.0589C470.981 15.6363 469.869 18.7963 468.571 21.3969C484.135 23.4217 478.38 45.1424 463.25 43.834ZM454.609 33.6933C454.609 33.6933 455.548 32.0315 456.161 31.7862C456.455 31.6691 456.783 31.6737 457.073 31.7992C457.363 31.9246 457.591 32.1606 457.708 32.4551C457.825 32.7497 457.82 33.0787 457.695 33.3698C457.57 33.6609 457.335 33.8902 457.041 34.0073C456.432 34.2625 454.609 33.6933 454.609 33.6933ZM403.181 15.9667C401.551 19.9968 395.241 23.9026 395.815 28.7243C395.943 29.8045 396.283 30.8487 396.813 31.7974C397.344 32.746 398.056 33.5805 398.908 34.2531C399.76 34.9258 400.736 35.4235 401.78 35.7178C402.824 36.0121 403.916 36.0973 404.992 35.9684C406.069 35.8395 407.11 35.4991 408.055 34.9667C409.001 34.4343 409.833 33.7202 410.503 32.8653C411.174 32.0104 411.67 31.0313 411.963 29.9841C412.257 28.9368 412.342 27.8418 412.213 26.7616C411.747 22.8264 408.401 18.3841 403.181 15.9667ZM406.866 28.4757C406.81 28.8376 406.685 29.1851 406.495 29.4983C406.306 29.8114 406.058 30.0842 405.763 30.3009C405.469 30.5176 405.136 30.6741 404.781 30.7614C404.427 30.8487 404.059 30.8651 403.698 30.8097C403.337 30.7543 402.991 30.6281 402.678 30.4384C402.366 30.2488 402.094 29.9992 401.878 29.7041C401.662 29.409 401.506 29.0741 401.419 28.7185C401.332 28.363 401.316 27.9937 401.371 27.6318C401.603 26.1107 404.873 23.0946 404.873 23.0946C404.873 23.0946 407.097 26.9546 406.866 28.4757ZM412.213 26.7714C411.747 22.8264 408.401 18.3841 403.181 15.9765C401.551 20.0066 395.241 23.9124 395.815 28.7341C395.943 29.8143 396.283 30.8585 396.813 31.8072C397.344 32.7558 398.056 33.5903 398.908 34.263C399.76 34.9356 400.736 35.4333 401.78 35.7276C402.824 36.0219 403.916 36.1071 404.992 35.9782C406.069 35.8493 407.11 35.509 408.055 34.9765C409.001 34.4441 409.833 33.73 410.503 32.8751C411.174 32.0202 411.67 31.0411 411.963 29.9939C412.257 28.9466 412.342 27.8516 412.213 26.7714ZM406.866 28.4757C406.81 28.8376 406.685 29.1851 406.495 29.4983C406.306 29.8114 406.058 30.0842 405.763 30.3009C405.469 30.5176 405.136 30.6741 404.781 30.7614C404.427 30.8487 404.059 30.8651 403.698 30.8097C403.337 30.7543 402.991 30.6281 402.678 30.4384C402.366 30.2488 402.094 29.9992 401.878 29.7041C401.662 29.409 401.506 29.0741 401.419 28.7185C401.332 28.363 401.316 27.9937 401.371 27.6318C401.603 26.1107 404.873 23.0946 404.873 23.0946C404.873 23.0946 407.097 26.9546 406.866 28.4757ZM412.213 26.7714C411.747 22.8264 408.401 18.3841 403.181 15.9765C401.551 20.0066 395.241 23.9124 395.815 28.7341C395.943 29.8143 396.283 30.8585 396.813 31.8072C397.344 32.7558 398.056 33.5903 398.908 34.263C399.76 34.9356 400.736 35.4333 401.78 35.7276C402.824 36.0219 403.916 36.1071 404.992 35.9782C406.069 35.8493 407.11 35.509 408.055 34.9765C409.001 34.4441 409.833 33.73 410.503 32.8751C411.174 32.0202 411.67 31.0411 411.963 29.9939C412.257 28.9466 412.342 27.8516 412.213 26.7714ZM406.866 28.4757C406.81 28.8376 406.685 29.1851 406.495 29.4983C406.306 29.8114 406.058 30.0842 405.763 30.3009C405.469 30.5176 405.136 30.6741 404.781 30.7614C404.427 30.8487 404.059 30.8651 403.698 30.8097C403.337 30.7543 402.991 30.6281 402.678 30.4384C402.366 30.2488 402.094 29.9992 401.878 29.7041C401.662 29.409 401.506 29.0741 401.419 28.7185C401.332 28.363 401.316 27.9937 401.371 27.6318C401.603 26.1107 404.873 23.0946 404.873 23.0946C404.873 23.0946 407.097 26.9546 406.866 28.4757ZM412.213 26.7714C411.747 22.8264 408.401 18.3841 403.181 15.9765C401.551 20.0066 395.241 23.9124 395.815 28.7341C395.943 29.8143 396.283 30.8585 396.813 31.8072C397.344 32.7558 398.056 33.5903 398.908 34.263C399.76 34.9356 400.736 35.4333 401.78 35.7276C402.824 36.0219 403.916 36.1071 404.992 35.9782C406.069 35.8493 407.11 35.509 408.055 34.9765C409.001 34.4441 409.833 33.73 410.503 32.8751C411.174 32.0202 411.67 31.0411 411.963 29.9939C412.257 28.9466 412.342 27.8516 412.213 26.7714ZM406.866 28.4757C406.81 28.8376 406.685 29.1851 406.495 29.4983C406.306 29.8114 406.058 30.0842 405.763 30.3009C405.469 30.5176 405.136 30.6741 404.781 30.7614C404.427 30.8487 404.059 30.8651 403.698 30.8097C403.337 30.7543 402.991 30.6281 402.678 30.4384C402.366 30.2488 402.094 29.9992 401.878 29.7041C401.662 29.409 401.506 29.0741 401.419 28.7185C401.332 28.363 401.316 27.9937 401.371 27.6318C401.603 26.1107 404.873 23.0946 404.873 23.0946C404.873 23.0946 407.097 26.9546 406.866 28.4757ZM412.213 26.7714C411.747 22.8264 408.401 18.3841 403.181 15.9765C401.551 20.0066 395.241 23.9124 395.815 28.7341C395.943 29.8143 396.283 30.8585 396.813 31.8072C397.344 32.7558 398.056 33.5903 398.908 34.263C399.76 34.9356 400.736 35.4333 401.78 35.7276C402.824 36.0219 403.916 36.1071 404.992 35.9782C406.069 35.8493 407.11 35.509 408.055 34.9765C409.001 34.4441 409.833 33.73 410.503 32.8751C411.174 32.0202 411.67 31.0411 411.963 29.9939C412.257 28.9466 412.342 27.8516 412.213 26.7714ZM406.866 28.4757C406.81 28.8376 406.685 29.1851 406.495 29.4983C406.306 29.8114 406.058 30.0842 405.763 30.3009C405.469 30.5176 405.136 30.6741 404.781 30.7614C404.427 30.8487 404.059 30.8651 403.698 30.8097C403.337 30.7543 402.991 30.6281 402.678 30.4384C402.366 30.2488 402.094 29.9992 401.878 29.7041C401.662 29.409 401.506 29.0741 401.419 28.7185C401.332 28.363 401.316 27.9937 401.371 27.6318C401.603 26.1107 404.873 23.0946 404.873 23.0946C404.873 23.0946 407.097 26.9546 406.866 28.4757ZM412.213 26.7714C411.747 22.8264 408.401 18.3841 403.181 15.9765C401.551 20.0066 395.241 23.9124 395.815 28.7341C395.943 29.8143 396.283 30.8585 396.813 31.8072C397.344 32.7558 398.056 33.5903 398.908 34.263C399.76 34.9356 400.736 35.4333 401.78 35.7276C402.824 36.0219 403.916 36.1071 404.992 35.9782C406.069 35.8493 407.11 35.509 408.055 34.9765C409.001 34.4441 409.833 33.73 410.503 32.8751C411.174 32.0202 411.67 31.0411 411.963 29.9939C412.257 28.9466 412.342 27.8516 412.213 26.7714ZM406.866 28.4757C406.81 28.8376 406.685 29.1851 406.495 29.4983C406.306 29.8114 406.058 30.0842 405.763 30.3009C405.469 30.5176 405.136 30.6741 404.781 30.7614C404.427 30.8487 404.059 30.8651 403.698 30.8097C403.337 30.7543 402.991 30.6281 402.678 30.4384C402.366 30.2488 402.094 29.9992 401.878 29.7041C401.662 29.409 401.506 29.0741 401.419 28.7185C401.332 28.363 401.316 27.9937 401.371 27.6318C401.603 26.1107 404.873 23.0946 404.873 23.0946C404.873 23.0946 407.097 26.9546 406.866 28.4757ZM412.213 26.7714C411.747 22.8264 408.401 18.3841 403.181 15.9765C401.551 20.0066 395.241 23.9124 395.815 28.7341C395.943 29.8143 396.283 30.8585 396.813 31.8072C397.344 32.7558 398.056 33.5903 398.908 34.263C399.76 34.9356 400.736 35.4333 401.78 35.7276C402.824 36.0219 403.916 36.1071 404.992 35.9782C406.069 35.8493 407.11 35.509 408.055 34.9765C409.001 34.4441 409.833 33.73 410.503 32.8751C411.174 32.0202 411.67 31.0411 411.963 29.9939C412.257 28.9466 412.342 27.8516 412.213 26.7714ZM406.866 28.4757C406.81 28.8376 406.685 29.1851 406.495 29.4983C406.306 29.8114 406.058 30.0842 405.763 30.3009C405.469 30.5176 405.136 30.6741 404.781 30.7614C404.427 30.8487 404.059 30.8651 403.698 30.8097C403.337 30.7543 402.991 30.6281 402.678 30.4384C402.366 30.2488 402.094 29.9992 401.878 29.7041C401.662 29.409 401.506 29.0741 401.419 28.7185C401.332 28.363 401.316 27.9937 401.371 27.6318C401.603 26.1107 404.873 23.0946 404.873 23.0946C404.873 23.0946 407.097 26.9546 406.866 28.4757ZM412.213 26.7714C411.747 22.8264 408.401 18.3841 403.181 15.9765C401.551 20.0066 395.241 23.9124 395.815 28.7341C395.943 29.8143 396.283 30.8585 396.813 31.8072C397.344 32.7558 398.056 33.5903 398.908 34.263C399.76 34.9356 400.736 35.4333 401.78 35.7276C402.824 36.0219 403.916 36.1071 404.992 35.9782C406.069 35.8493 407.11 35.509 408.055 34.9765C409.001 34.4441 409.833 33.73 410.503 32.8751C411.174 32.0202 411.67 31.0411 411.963 29.9939C412.257 28.9466 412.342 27.8516 412.213 26.7714ZM406.866 28.4757C406.81 28.8376 406.685 29.1851 406.495 29.4983C406.306 29.8114 406.058 30.0842 405.763 30.3009C405.469 30.5176 405.136 30.6741 404.781 30.7614C404.427 30.8487 404.059 30.8651 403.698 30.8097C403.337 30.7543 402.991 30.6281 402.678 30.4384C402.366 30.2488 402.094 29.9992 401.878 29.7041C401.662 29.409 401.506 29.0741 401.419 28.7185C401.332 28.363 401.316 27.9937 401.371 27.6318C401.603 26.1107 404.873 23.0946 404.873 23.0946C404.873 23.0946 407.097 26.9546 406.866 28.4757ZM412.213 26.7714C411.747 22.8264 408.401 18.3841 403.181 15.9765C401.551 20.0066 395.241 23.9124 395.815 28.7341C395.943 29.8143 396.283 30.8585 396.813 31.8072C397.344 32.7558 398.056 33.5903 398.908 34.263C399.76 34.9356 400.736 35.4333 401.78 35.7276C402.824 36.0219 403.916 36.1071 404.992 35.9782C406.069 35.8493 407.11 35.509 408.055 34.9765C409.001 34.4441 409.833 33.73 410.503 32.8751C411.174 32.0202 411.67 31.0411 411.963 29.9939C412.257 28.9466 412.342 27.8516 412.213 26.7714ZM406.866 28.4757C406.81 28.8376 406.685 29.1851 406.495 29.4983C406.306 29.8114 406.058 30.0842 405.763 30.3009C405.469 30.5176 405.136 30.6741 404.781 30.7614C404.427 30.8487 404.059 30.8651 403.698 30.8097C403.337 30.7543 402.991 30.6281 402.678 30.4384C402.366 30.2488 402.094 29.9992 401.878 29.7041C401.662 29.409 401.506 29.0741 401.419 28.7185C401.332 28.363 401.316 27.9937 401.371 27.6318C401.603 26.1107 404.873 23.0946 404.873 23.0946C404.873 23.0946 407.097 26.9546 406.866 28.4757Z" fill="black"/>
<path d="M382.828 31.0763C382.789 31.2309 382.781 31.3917 382.805 31.5492C382.829 31.7068 382.885 31.8579 382.968 31.9937C383.051 32.1294 383.161 32.2471 383.29 32.3397C383.419 32.4324 383.566 32.4981 383.721 32.5331C383.876 32.568 384.036 32.5715 384.193 32.5432C384.349 32.515 384.498 32.4556 384.631 32.3686C384.764 32.2816 384.879 32.1688 384.968 32.0367C385.057 31.9047 385.118 31.7561 385.149 31.5997C385.296 30.9455 384.458 29.2412 384.458 29.2412C384.458 29.2412 382.968 30.4221 382.828 31.0763Z" fill="url(#paint4_radial_3_90)"/>
<path d="M428.487 23.2026C427.604 22.568 424.46 22.7446 424.46 22.7446C424.46 22.7446 425.315 25.7835 426.198 26.4182C426.409 26.5685 426.647 26.6758 426.899 26.7339C427.15 26.792 427.411 26.7998 427.666 26.7568C427.921 26.7138 428.165 26.6209 428.384 26.4834C428.603 26.3459 428.792 26.1664 428.942 25.9553C429.092 25.7441 429.199 25.5055 429.257 25.2529C429.315 25.0003 429.323 24.7387 429.28 24.4831C429.237 24.2275 429.144 23.9828 429.007 23.7631C428.87 23.5434 428.691 23.3529 428.481 23.2026H428.487Z" fill="url(#paint5_radial_3_90)"/>
<path d="M457.707 32.4666C457.587 32.1749 457.358 31.9424 457.068 31.8198C456.779 31.6973 456.453 31.6946 456.161 31.8123C455.548 32.0577 454.609 33.7194 454.609 33.7194C454.609 33.7194 456.432 34.2755 457.041 34.0466C457.19 33.9887 457.326 33.9015 457.44 33.7901C457.555 33.6786 457.645 33.5453 457.708 33.3979C457.77 33.2505 457.801 33.0921 457.801 32.9321C457.801 32.7722 457.769 32.6138 457.707 32.4666Z" fill="url(#paint6_radial_3_90)"/>
<path d="M451.609 27.0855C450.898 26.8933 450.14 26.992 449.501 27.36C448.862 27.7279 448.395 28.3351 448.202 29.0482C447.801 30.5333 449.581 34.6092 449.581 34.6092C449.581 34.6092 453.168 31.9923 453.566 30.4875C453.753 29.7762 453.653 29.0193 453.286 28.382C452.92 27.7447 452.317 27.2786 451.609 27.0855Z" fill="url(#paint7_radial_3_90)"/>
<path d="M443.275 30.638C443.059 30.8687 442.943 31.1758 442.952 31.4921C442.961 31.8084 443.095 32.1082 443.324 32.3259C443.8 32.7773 445.701 32.9344 445.701 32.9344C445.701 32.9344 445.436 31.0403 444.96 30.5889C444.847 30.4808 444.713 30.3963 444.566 30.3402C444.42 30.2842 444.264 30.2576 444.107 30.2622C443.951 30.2668 443.797 30.3023 443.654 30.3668C443.511 30.4313 443.382 30.5234 443.275 30.638Z" fill="url(#paint8_radial_3_90)"/>
<path d="M401.371 27.6318C401.316 27.9937 401.332 28.363 401.419 28.7186C401.506 29.0741 401.662 29.409 401.878 29.7041C402.094 29.9992 402.366 30.2488 402.678 30.4385C402.991 30.6282 403.337 30.7543 403.698 30.8097C404.059 30.8651 404.427 30.8487 404.781 30.7614C405.136 30.6741 405.469 30.5176 405.763 30.3009C406.058 30.0842 406.306 29.8114 406.495 29.4983C406.685 29.1851 406.81 28.8377 406.866 28.4757C407.097 26.9546 404.873 23.0946 404.873 23.0946C404.873 23.0946 401.603 26.1107 401.371 27.6318Z" fill="url(#paint9_radial_3_90)"/>
<path d="M463.25 43.834C458.766 43.4382 454.863 42.1984 451.713 39.9772C455.134 31.6553 459.81 40.4974 467.645 37.1869C472.435 35.1653 473.573 25.4793 464.31 26.4083C460.397 26.8009 459.679 25.6658 459.679 25.6658C461.903 22.1329 464.124 16.9284 464.124 16.9284C458.3 17.0953 452.385 17.2784 453.927 10.0589C454.495 10.5889 464.893 11.0926 472.093 10.0589C470.981 15.6363 469.869 18.7963 468.571 21.3969C484.135 23.4217 478.38 45.1425 463.25 43.834ZM442.381 36.5687C439.023 36.513 434.556 36.2088 433.062 36.0682C437.301 32.7675 440.689 28.6818 441.556 25.0639C441.956 23.4364 441.988 21.7397 441.65 20.0982C441.311 18.4567 440.611 16.912 439.6 15.5774C437.79 13.1404 434.578 11.4721 431.008 11.109C426.7 10.6739 422.462 12.1132 419.064 15.1554L420.349 16.598C421.12 17.4681 422.132 18.0883 423.255 18.3795C424.379 18.6708 425.563 18.62 426.658 18.2336C427.834 17.8062 429.091 17.6464 430.336 17.7658C432.257 17.9588 433.685 18.8126 434.249 19.5715C435.136 20.7655 435.276 22.0609 435.077 23.497C434.468 27.9294 427.77 32.411 424.751 34.6681C420.101 38.1454 419.067 42.4339 419.067 42.4339C426.202 43.0064 440.262 43.255 448.981 42.9606C448.577 39.8006 446.392 36.6374 442.381 36.5556V36.5687ZM405.757 42.4895C401.838 42.9517 397.896 41.8359 394.796 39.3867C391.695 36.9375 389.69 33.3549 389.219 29.4244C388.648 24.5994 391.615 21.0076 394.015 18.1355C397.602 13.8535 398.766 11.3903 399.288 7.11485C413.309 12.1754 417.906 18.5051 418.783 25.898C419.24 29.8282 418.126 33.7798 415.684 36.8872C413.243 39.9946 409.673 42.0045 405.757 42.4764V42.4895ZM412.213 26.7878C411.747 22.8427 408.401 18.4005 403.181 15.9929C401.551 20.023 395.241 23.9288 395.815 28.7505C395.943 29.8307 396.283 30.8749 396.813 31.8235C397.344 32.7722 398.056 33.6066 398.908 34.2793C399.76 34.952 400.736 35.4497 401.78 35.744C402.824 36.0383 403.916 36.1234 404.992 35.9946C406.069 35.8657 407.11 35.5253 408.055 34.9929C409.001 34.4605 409.833 33.7464 410.503 32.8915C411.174 32.0365 411.67 31.0575 411.963 30.0102C412.257 28.963 412.342 27.868 412.213 26.7878ZM381.615 35.7345C378.256 35.6756 373.789 35.3747 372.295 35.234C376.534 31.9334 379.919 27.8477 380.773 24.2297C381.172 22.6022 381.204 20.9057 380.865 19.2643C380.527 17.623 379.827 16.0783 378.817 14.7433C377.01 12.3095 373.799 10.6379 370.225 10.2781C365.921 9.84302 361.679 11.2791 358.284 14.3246L359.569 15.7671C360.339 16.6373 361.35 17.2576 362.474 17.5489C363.597 17.8402 364.781 17.7893 365.875 17.4027C367.053 16.9754 368.31 16.8156 369.556 16.935C371.474 17.128 372.902 17.9817 373.469 18.7407C374.356 19.9346 374.496 21.2268 374.298 22.6661C373.688 27.0986 366.99 31.5768 363.971 33.8339C359.321 37.3112 358.284 41.603 358.284 41.603C365.422 42.1755 379.479 42.4241 388.201 42.1264C387.81 38.9632 385.632 35.7901 381.615 35.7181V35.7345Z" fill="url(#paint10_linear_3_90)"/>
</g>
<defs>
<radialGradient id="paint0_radial_3_90" cx="0" cy="0" r="1" gradientUnits="userSpaceOnUse" gradientTransform="translate(204.762 127.796) scale(103.204 103.204)">
<stop stop-color="#E000C6"/>
<stop offset="0.66" stop-color="#FF5288"/>
<stop offset="1" stop-color="#FFFF00"/>
</radialGradient>
<radialGradient id="paint1_radial_3_90" cx="0" cy="0" r="1" gradientUnits="userSpaceOnUse" gradientTransform="translate(218.188 50.3763) scale(174.288 174.848)">
<stop stop-color="#FFFF00"/>
<stop offset="1" stop-color="#FF6DD1"/>
</radialGradient>
<linearGradient id="paint2_linear_3_90" x1="24.5989" y1="21.6618" x2="24.5989" y2="63.5102" gradientUnits="userSpaceOnUse">
<stop stop-color="#FFFF00"/>
<stop offset="0.25" stop-color="#FFBD3C"/>
<stop offset="0.51" stop-color="#FF7F75"/>
<stop offset="0.73" stop-color="#FF519E"/>
<stop offset="0.9" stop-color="#FF35B8"/>
<stop offset="1" stop-color="#FF2BC1"/>
</linearGradient>
<linearGradient id="paint3_linear_3_90" x1="372.038" y1="71.8681" x2="372.038" y2="173.661" gradientUnits="userSpaceOnUse">
<stop stop-color="#FFFF00"/>
<stop offset="0.25" stop-color="#FFBD3C"/>
<stop offset="0.51" stop-color="#FF7F75"/>
<stop offset="0.73" stop-color="#FF519E"/>
<stop offset="0.9" stop-color="#FF35B8"/>
<stop offset="1" stop-color="#FF2BC1"/>
</linearGradient>
<radialGradient id="paint4_radial_3_90" cx="0" cy="0" r="1" gradientUnits="userSpaceOnUse" gradientTransform="translate(383.982 30.8702) scale(1.43146 1.43605)">
<stop stop-color="#FFFF00"/>
<stop offset="1" stop-color="#FF6DD1"/>
</radialGradient>
<radialGradient id="paint5_radial_3_90" cx="0" cy="0" r="1" gradientUnits="userSpaceOnUse" gradientTransform="translate(426.886 24.7531) scale(2.23685 2.24404)">
<stop stop-color="#FFFF00"/>
<stop offset="1" stop-color="#FF6DD1"/>
</radialGradient>
<radialGradient id="paint6_radial_3_90" cx="0" cy="0" r="1" gradientUnits="userSpaceOnUse" gradientTransform="translate(456.2 32.8984) scale(1.40212 1.40661)">
<stop stop-color="#FFFF00"/>
<stop offset="1" stop-color="#FF6DD1"/>
</radialGradient>
<radialGradient id="paint7_radial_3_90" cx="0" cy="0" r="1" gradientUnits="userSpaceOnUse" gradientTransform="translate(450.908 30.8081) scale(3.32266 3.33335)">
<stop stop-color="#FFFF00"/>
<stop offset="1" stop-color="#FF6DD1"/>
</radialGradient>
<radialGradient id="paint8_radial_3_90" cx="0" cy="0" r="1" gradientUnits="userSpaceOnUse" gradientTransform="translate(444.325 31.5964) scale(1.3532 1.35755)">
<stop stop-color="#FFFF00"/>
<stop offset="1" stop-color="#FF6DD1"/>
</radialGradient>
<radialGradient id="paint9_radial_3_90" cx="0" cy="0" r="1" gradientUnits="userSpaceOnUse" gradientTransform="translate(404.11 26.9677) scale(3.3618 3.3726)">
<stop stop-color="#FFFF00"/>
<stop offset="1" stop-color="#FF6DD1"/>
</radialGradient>
<linearGradient id="paint10_linear_3_90" x1="437.689" y1="-9.88554" x2="395.42" y2="63.0918" gradientUnits="userSpaceOnUse">
<stop stop-color="#FFFF00"/>
<stop offset="0.05" stop-color="#FFF20A"/>
<stop offset="0.31" stop-color="#FFAF3C"/>
<stop offset="0.54" stop-color="#FF7964"/>
<stop offset="0.74" stop-color="#FF5381"/>
<stop offset="0.9" stop-color="#FF3C93"/>
<stop offset="1" stop-color="#FF3399"/>
</linearGradient>
<clipPath id="clip0_3_90">
<rect width="483" height="196" fill="white"/>
</clipPath>
</defs>
</svg>
