<svg width="1014" height="1014" viewBox="0 0 1014 1014" fill="none" xmlns="http://www.w3.org/2000/svg">
<path d="M791.766 101.564L759.357 89.7898L634.903 147.789L634.042 148.202L598.235 246.757L658.069 375.024C657.113 376.052 656.544 377.38 656.459 378.782C656.374 380.183 656.778 381.571 657.603 382.707C658.428 383.844 659.622 384.658 660.981 385.012C662.34 385.366 663.78 385.237 665.055 384.648C666.33 384.058 667.36 383.044 667.969 381.779C668.579 380.514 668.731 379.077 668.398 377.713C668.065 376.349 667.269 375.143 666.145 374.301C665.021 373.458 663.64 373.032 662.237 373.096L659.768 367.817L668.665 343.362L624.1 247.905L648.093 181.941C649.496 181.889 650.838 181.351 651.889 180.42C652.939 179.489 653.634 178.222 653.854 176.835C654.074 175.449 653.805 174.029 653.094 172.818C652.383 171.608 651.274 170.682 649.956 170.198C648.638 169.714 647.192 169.703 645.867 170.167C644.541 170.63 643.417 171.539 642.688 172.738C641.958 173.938 641.668 175.353 641.867 176.743C642.065 178.133 642.74 179.41 643.777 180.358L619.106 248.123L663.672 343.637L656.99 361.998L603.172 246.539L637.727 151.645L722.679 112.019L722.587 112.237L756.878 124.7L778.403 114.67L788.08 135.326C787.268 136.204 786.735 137.304 786.548 138.485C786.36 139.666 786.528 140.876 787.028 141.962C787.529 143.049 788.341 143.962 789.361 144.587C790.38 145.212 791.563 145.521 792.758 145.475C793.954 145.428 795.109 145.028 796.077 144.326C797.045 143.623 797.783 142.65 798.198 141.528C798.613 140.406 798.685 139.186 798.407 138.023C798.128 136.86 797.511 135.806 796.633 134.993C796.046 134.448 795.355 134.026 794.602 133.752C793.849 133.478 793.048 133.357 792.248 133.398L780.699 108.484L756.706 119.639L728.338 109.31L759.599 94.7474L788.505 105.19L838.42 212.33L814.875 276.801L792.179 287.302L788.459 297.481C787.062 297.538 785.728 298.078 784.685 299.009C783.642 299.939 782.954 301.203 782.739 302.584C782.524 303.966 782.795 305.379 783.506 306.582C784.218 307.786 785.325 308.705 786.638 309.184C787.952 309.662 789.391 309.67 790.711 309.206C792.029 308.742 793.146 307.835 793.871 306.639C794.595 305.443 794.882 304.033 794.682 302.65C794.483 301.266 793.809 299.995 792.776 299.053L795.829 290.653L812.59 282.849L801.018 314.626C799.612 314.677 798.267 315.215 797.214 316.148C796.16 317.081 795.463 318.35 795.242 319.74C795.021 321.129 795.29 322.552 796.002 323.765C796.715 324.979 797.826 325.907 799.148 326.392C800.469 326.876 801.917 326.887 803.246 326.423C804.574 325.958 805.7 325.047 806.43 323.844C807.161 322.642 807.451 321.223 807.251 319.831C807.052 318.438 806.374 317.158 805.335 316.21L843.299 212.043L791.766 101.564ZM858.017 122.817L876.74 162.983L859.601 210.218L822.256 130.254C823.216 129.224 823.787 127.893 823.873 126.488C823.959 125.084 823.554 123.693 822.728 122.554C821.902 121.415 820.706 120.598 819.343 120.243C817.981 119.888 816.538 120.017 815.261 120.608C813.983 121.199 812.951 122.215 812.34 123.483C811.729 124.751 811.578 126.191 811.912 127.558C812.246 128.925 813.045 130.133 814.171 130.977C815.298 131.82 816.683 132.246 818.089 132.182L860.152 222.348L836.951 286.166C835.544 286.217 834.2 286.755 833.146 287.688C832.092 288.62 831.396 289.89 831.175 291.279C830.954 292.669 831.222 294.092 831.935 295.305C832.647 296.518 833.759 297.447 835.08 297.931C836.401 298.416 837.85 298.427 839.178 297.962C840.506 297.498 841.632 296.586 842.363 295.384C843.093 294.182 843.384 292.763 843.184 291.37C842.984 289.978 842.307 288.698 841.267 287.749L842.783 283.595L869.795 270.971L887.383 222.773L884.88 217.425C885.827 216.393 886.387 215.065 886.464 213.666C886.541 212.268 886.13 210.886 885.301 209.757C884.472 208.628 883.277 207.821 881.919 207.475C880.562 207.129 879.126 207.264 877.857 207.858C876.589 208.452 875.565 209.468 874.962 210.732C874.359 211.996 874.214 213.43 874.551 214.79C874.888 216.149 875.686 217.349 876.81 218.186C877.934 219.022 879.313 219.443 880.713 219.376L882.423 222.991L866.156 267.678L845.079 277.467L865.203 222.187L862.368 216.128L881.723 162.8L862.207 120.912C863.154 119.881 863.714 118.552 863.791 117.154C863.868 115.755 863.457 114.374 862.628 113.245C861.799 112.115 860.604 111.309 859.246 110.963C857.889 110.616 856.453 110.752 855.184 111.346C853.915 111.94 852.892 112.955 852.289 114.219C851.686 115.484 851.541 116.918 851.878 118.277C852.215 119.637 853.013 120.837 854.137 121.673C855.261 122.51 856.64 122.93 858.04 122.863L858.017 122.817ZM559.135 61.0082C560.082 59.9804 560.643 58.6557 560.723 57.2603C560.802 55.8649 560.395 54.4851 559.57 53.3565C558.745 52.2279 557.554 51.4205 556.2 51.0719C554.846 50.7233 553.413 50.8552 552.146 51.4451C550.878 52.035 549.854 53.0464 549.25 54.3066C548.645 55.5668 548.496 56.9977 548.829 58.3552C549.162 59.7127 549.956 60.9125 551.076 61.7501C552.195 62.5876 553.57 63.0108 554.967 62.9476L578.651 113.694L574.862 124.114C573.472 124.178 572.147 124.723 571.113 125.654C570.079 126.586 569.4 127.847 569.192 129.223C568.984 130.598 569.26 132.004 569.972 133.199C570.684 134.394 571.789 135.306 573.099 135.778C574.408 136.25 575.841 136.254 577.152 135.788C578.464 135.323 579.574 134.417 580.292 133.225C581.011 132.034 581.293 130.63 581.093 129.253C580.892 127.876 580.219 126.612 579.19 125.675L583.621 113.488L559.135 61.0082ZM352.138 134.293V134.5L391.894 219.777L375.764 213.902L357.752 175.285C358.708 174.257 359.278 172.928 359.363 171.527C359.448 170.126 359.043 168.738 358.218 167.602C357.394 166.465 356.199 165.65 354.84 165.296C353.481 164.943 352.041 165.071 350.767 165.661C349.492 166.251 348.462 167.265 347.852 168.53C347.242 169.794 347.091 171.232 347.424 172.596C347.756 173.96 348.553 175.166 349.676 176.008C350.8 176.85 352.182 177.276 353.585 177.213L372.447 217.574L394.729 225.607L403.913 245.311L418.367 250.579L428.354 271.993L467.088 286.097C467.139 287.503 467.677 288.847 468.61 289.9C469.543 290.953 470.813 291.65 472.203 291.871C473.593 292.092 475.017 291.823 476.23 291.111C477.444 290.399 478.373 289.288 478.858 287.967C479.343 286.646 479.354 285.198 478.889 283.87C478.424 282.542 477.512 281.417 476.31 280.687C475.107 279.956 473.688 279.666 472.294 279.866C470.901 280.066 469.621 280.743 468.672 281.782L431.706 268.332L424.451 252.794L505.672 282.333L557.987 257.981L595.101 271.488L655.417 400.971L640.275 442.513L568.089 476.184L575.964 454.494L628.279 430.096L639.862 398.297L625.719 367.748C626.531 366.87 627.064 365.77 627.251 364.589C627.439 363.408 627.271 362.198 626.771 361.112C626.27 360.025 625.458 359.112 624.438 358.487C623.419 357.862 622.236 357.553 621.041 357.599C619.845 357.646 618.69 358.046 617.722 358.748C616.754 359.451 616.016 360.424 615.601 361.546C615.186 362.668 615.114 363.888 615.392 365.051C615.671 366.214 616.288 367.268 617.166 368.081C617.753 368.626 618.444 369.048 619.197 369.322C619.95 369.596 620.751 369.717 621.551 369.676L634.903 398.446L624.571 426.665L572.302 451.029L562.234 478.823L531.95 492.939C530.922 491.991 529.597 491.43 528.201 491.351C526.805 491.271 525.424 491.679 524.295 492.503C523.167 493.328 522.359 494.518 522.01 495.872C521.661 497.225 521.793 498.658 522.383 499.925C522.974 501.192 523.985 502.215 525.246 502.82C526.507 503.424 527.938 503.573 529.296 503.24C530.654 502.907 531.854 502.113 532.692 500.995C533.53 499.876 533.953 498.501 533.89 497.104L643.995 445.704L660.434 400.569L598.442 267.758L586.87 242.97L625.397 137.082L762.469 73.23L822.371 95.0343L848.086 149.947C847.142 150.973 846.583 152.295 846.504 153.687C846.426 155.08 846.833 156.456 847.656 157.582C848.48 158.708 849.669 159.513 851.02 159.861C852.371 160.208 853.801 160.077 855.065 159.488C856.33 158.899 857.352 157.89 857.955 156.633C858.559 155.376 858.707 153.948 858.376 152.593C858.044 151.239 857.252 150.041 856.136 149.205C855.02 148.368 853.647 147.945 852.254 148.007L825.735 91.2816L762.331 68.1692L659.516 116.058L667.403 94.3916L706.079 76.3744C707.108 77.316 708.433 77.8713 709.826 77.9456C711.219 78.0199 712.596 77.6086 713.719 76.7818C714.843 75.9551 715.645 74.7641 715.989 73.4121C716.332 72.0601 716.196 70.6309 715.602 69.3683C715.009 68.1057 713.996 67.088 712.736 66.4887C711.476 65.8895 710.047 65.7459 708.693 66.0824C707.339 66.419 706.143 67.2148 705.311 68.3341C704.478 69.4534 704.06 70.8269 704.127 72.2201L663.74 91.0636L653.695 118.606H653.925L622.642 133.146L621.781 133.559L581.876 243.211L592.3 265.578L577.284 260.104L571.292 247.228L551.695 240.09L507.739 260.655L415.026 226.938L377.211 145.804C378.158 144.776 378.72 143.451 378.799 142.056C378.879 140.66 378.471 139.281 377.646 138.152C376.821 137.023 375.63 136.216 374.276 135.867C372.922 135.519 371.489 135.651 370.222 136.241C368.954 136.831 367.931 137.842 367.326 139.102C366.721 140.362 366.573 141.793 366.906 143.151C367.239 144.508 368.033 145.708 369.152 146.546C370.271 147.383 371.647 147.806 373.044 147.743L411.662 230.53L507.957 265.578L551.96 245.013L567.963 250.843L571.223 257.832L557.745 252.931L505.431 277.306L407.139 241.616L357.431 134.89H357.603L357.178 133.995L362.918 118.239L382.629 109.058L398.414 65.7363L458.03 37.8957L510.138 56.8654C510.195 58.262 510.735 59.5956 511.666 60.6385C512.597 61.6813 513.862 62.3689 515.243 62.5837C516.625 62.7985 518.038 62.5273 519.242 61.8164C520.446 61.1055 521.366 59.9989 521.845 58.6856C522.324 57.3722 522.332 55.9335 521.867 54.615C521.403 53.2964 520.495 52.1798 519.299 51.4557C518.103 50.7317 516.693 50.445 515.309 50.6446C513.925 50.8443 512.653 51.5179 511.711 52.5504L457.823 32.9266L394.683 62.3509L378.898 105.695L365.122 112.133L386.383 53.7784L462.691 18.203L527.599 41.7975L561.798 115.117L552.74 139.962C551.344 140.022 550.011 140.564 548.97 141.496C547.928 142.428 547.243 143.693 547.03 145.074C546.817 146.455 547.089 147.867 547.802 149.069C548.514 150.271 549.621 151.189 550.935 151.667C552.249 152.144 553.688 152.151 555.006 151.686C556.324 151.221 557.44 150.314 558.164 149.118C558.888 147.923 559.174 146.513 558.974 145.13C558.774 143.747 558.101 142.477 557.068 141.535L566.769 114.784L530.963 38.0678L513.823 31.8249L532.443 23.1377L558.044 32.5824L574.885 68.5708C573.958 69.6035 573.417 70.9254 573.355 72.3116C573.293 73.6978 573.714 75.0626 574.545 76.1739C575.376 77.2852 576.567 78.0743 577.914 78.4068C579.262 78.7394 580.683 78.5949 581.936 77.9979C583.189 77.4009 584.197 76.3884 584.787 75.1325C585.378 73.8767 585.514 72.4551 585.174 71.1098C584.834 69.7645 584.039 68.5785 582.922 67.7536C581.806 66.9287 580.439 66.5159 579.052 66.5855L561.431 28.7953L532.294 18.1686L507.784 29.6445L468.58 15.4488L487.717 6.5435L493.698 8.70098C493.758 10.0977 494.301 11.4303 495.235 12.4714C496.168 13.5125 497.434 14.1974 498.816 14.4092C500.199 14.6211 501.612 14.3467 502.814 13.633C504.017 12.9193 504.934 11.8104 505.41 10.4958C505.886 9.18113 505.89 7.74219 505.422 6.42463C504.955 5.10706 504.044 3.99256 502.846 3.27141C501.648 2.55025 500.237 2.26714 498.853 2.47043C497.47 2.67371 496.2 3.35078 495.26 4.38603L487.511 1.55148L400.71 42.027L408.195 21.4622L431.66 10.5142C432.691 11.4729 434.022 12.0442 435.427 12.1302C436.832 12.2162 438.223 11.8116 439.363 10.9857C440.503 10.1598 441.32 8.96378 441.675 7.60218C442.03 6.24058 441.901 4.79797 441.31 3.52099C440.718 2.24401 439.702 1.21199 438.434 0.601384C437.166 -0.0092248 435.725 -0.160496 434.357 0.173435C432.99 0.507365 431.781 1.30576 430.937 2.4321C430.094 3.55844 429.667 4.94278 429.732 6.34841L404.545 18.0997L394.775 44.7812L382.664 50.4274L354.343 128.188L347.983 114.601L358.062 86.347C359.458 86.2794 360.787 85.7297 361.823 84.7917C362.859 83.8538 363.538 82.5857 363.743 81.2036C363.948 79.8216 363.667 78.4112 362.948 77.213C362.229 76.0148 361.117 75.103 359.801 74.6331C358.484 74.1632 357.046 74.1642 355.73 74.6361C354.415 75.108 353.304 76.0214 352.587 77.2207C351.869 78.42 351.591 79.8308 351.798 81.2125C352.005 82.5942 352.685 83.8614 353.723 84.7978L342.931 114.784L352.138 134.293ZM801.948 842.128L912.466 790.601L924.199 758.216L866.225 633.805L865.812 632.945L767.302 597.105L638.99 656.918C637.958 655.965 636.628 655.4 635.226 655.318C633.824 655.237 632.438 655.645 631.303 656.472C630.168 657.299 629.356 658.494 629.005 659.854C628.655 661.213 628.787 662.652 629.38 663.925C629.972 665.197 630.989 666.225 632.255 666.831C633.522 667.438 634.959 667.586 636.323 667.251C637.687 666.916 638.892 666.117 639.732 664.992C640.572 663.868 640.995 662.486 640.93 661.084L646.21 658.616L670.663 667.51L766.211 622.961L832.198 646.945C832.253 648.348 832.794 649.688 833.728 650.737C834.662 651.785 835.931 652.477 837.319 652.694C838.706 652.911 840.126 652.639 841.336 651.926C842.545 651.212 843.469 650.101 843.95 648.782C844.431 647.463 844.438 646.018 843.972 644.694C843.505 643.369 842.593 642.248 841.391 641.522C840.189 640.796 838.772 640.509 837.382 640.711C835.992 640.914 834.716 641.592 833.771 642.63L765.981 617.969L670.491 662.518L652.123 655.839L767.554 602.04L862.471 636.583L902.123 721.504L901.893 721.413L889.414 755.726L899.437 777.254L878.773 786.917C877.744 785.97 876.419 785.409 875.023 785.329C873.627 785.25 872.247 785.657 871.118 786.482C869.989 787.306 869.181 788.497 868.833 789.85C868.484 791.204 868.616 792.636 869.206 793.904C869.796 795.171 870.808 796.194 872.068 796.798C873.329 797.403 874.761 797.551 876.119 797.219C877.477 796.886 878.677 796.092 879.515 794.973C880.352 793.854 880.776 792.479 880.713 791.083L905.613 779.481L894.351 755.496L904.683 727.139L919.251 758.388L908.77 787.169L801.684 837.078L737.19 813.667L726.628 791.014L716.503 787.273C716.445 785.876 715.905 784.543 714.974 783.5C714.043 782.457 712.779 781.769 711.397 781.555C710.015 781.34 708.602 781.611 707.398 782.322C706.194 783.033 705.274 784.139 704.795 785.453C704.317 786.766 704.309 788.205 704.773 789.523C705.237 790.842 706.145 791.958 707.341 792.682C708.537 793.407 709.948 793.693 711.331 793.494C712.715 793.294 713.987 792.62 714.93 791.588L723.322 794.64L731.14 811.395L699.363 799.896C699.312 798.49 698.773 797.146 697.84 796.093C696.907 795.04 695.637 794.343 694.247 794.122C692.857 793.901 691.434 794.17 690.22 794.882C689.006 795.594 688.078 796.705 687.593 798.026C687.108 799.347 687.097 800.795 687.562 802.123C688.027 803.451 688.938 804.576 690.141 805.306C691.344 806.037 692.763 806.327 694.156 806.127C695.549 805.927 696.83 805.25 697.779 804.211L801.948 842.128ZM894.638 851.09C893.561 851.599 892.659 852.416 892.046 853.437C891.433 854.459 891.136 855.639 891.194 856.828L851.014 875.637L803.762 858.423L883.72 821.161C884.749 822.108 886.074 822.67 887.47 822.749C888.866 822.828 890.246 822.421 891.375 821.596C892.504 820.772 893.312 819.581 893.66 818.228C894.009 816.874 893.877 815.442 893.287 814.175C892.697 812.907 891.685 811.884 890.424 811.28C889.164 810.675 887.732 810.527 886.374 810.86C885.016 811.193 883.816 811.986 882.978 813.105C882.14 814.224 881.717 815.599 881.78 816.995L791.593 859.043L727.81 835.667C727.751 834.271 727.208 832.939 726.276 831.898C725.344 830.857 724.079 830.171 722.697 829.958C721.316 829.745 719.903 830.018 718.701 830.73C717.498 831.442 716.579 832.549 716.102 833.862C715.625 835.176 715.618 836.614 716.083 837.932C716.548 839.249 717.455 840.365 718.651 841.089C719.847 841.812 721.257 842.098 722.641 841.898C724.024 841.699 725.295 841.025 726.238 839.993L730.405 841.496L743.033 868.499L791.318 886.08L796.656 883.579C797.685 884.52 799.009 885.076 800.402 885.15C801.795 885.225 803.17 884.815 804.294 883.989C805.418 883.163 806.221 881.973 806.565 880.622C806.91 879.27 806.775 877.842 806.183 876.579C805.591 875.316 804.58 874.297 803.321 873.697C802.062 873.096 800.634 872.951 799.28 873.285C797.926 873.619 796.729 874.413 795.895 875.53C795.061 876.648 794.64 878.02 794.704 879.413L791.088 881.134L746.385 864.873L736.547 843.746L791.846 863.875L797.907 861.029L851.266 880.457L893.088 860.948C893.893 861.69 894.885 862.199 895.957 862.42C897.029 862.642 898.141 862.568 899.175 862.207C900.208 861.845 901.124 861.209 901.824 860.368C902.523 859.526 902.981 858.51 903.148 857.428C903.315 856.347 903.184 855.24 902.77 854.227C902.356 853.214 901.675 852.332 900.798 851.676C899.922 851.021 898.883 850.615 897.794 850.504C896.705 850.393 895.606 850.58 894.615 851.044L894.638 851.09ZM972.025 399.651L992.597 407.145L1003.54 430.601C1002.59 431.628 1002.03 432.951 1001.96 434.344C1001.88 435.737 1002.29 437.114 1003.11 438.239C1003.93 439.365 1005.12 440.17 1006.48 440.516C1007.83 440.863 1009.26 440.73 1010.52 440.14C1011.79 439.549 1012.81 438.539 1013.41 437.28C1014.01 436.022 1014.16 434.593 1013.82 433.239C1013.49 431.884 1012.7 430.687 1011.58 429.853C1010.46 429.018 1009.09 428.597 1007.69 428.662L995.892 403.472L969.212 393.764L963.564 381.645L885.844 353.346L899.437 346.896L927.7 356.926C927.768 358.322 928.318 359.65 929.256 360.686C930.194 361.722 931.463 362.4 932.846 362.605C934.228 362.81 935.639 362.529 936.838 361.81C938.036 361.092 938.948 359.98 939.418 358.664C939.888 357.348 939.887 355.91 939.415 354.595C938.943 353.28 938.03 352.169 936.83 351.452C935.63 350.736 934.219 350.457 932.837 350.664C931.454 350.871 930.187 351.551 929.25 352.588L899.184 341.881L879.783 351.062H879.576L794.268 390.826L800.146 374.691L838.776 356.685C839.655 357.497 840.754 358.03 841.936 358.217C843.118 358.404 844.328 358.237 845.415 357.737C846.501 357.236 847.415 356.425 848.04 355.405C848.666 354.386 848.975 353.204 848.928 352.009C848.882 350.814 848.482 349.659 847.779 348.691C847.076 347.724 846.102 346.986 844.98 346.571C843.858 346.157 842.638 346.084 841.474 346.362C840.311 346.641 839.256 347.258 838.443 348.135C837.897 348.722 837.475 349.413 837.201 350.166C836.927 350.919 836.807 351.719 836.847 352.519L796.472 371.363L788.436 393.637L768.725 402.669L763.456 417.117L742.034 427.101L727.891 465.832C726.488 465.887 725.148 466.427 724.099 467.36C723.05 468.292 722.358 469.56 722.14 470.946C721.922 472.332 722.192 473.751 722.904 474.961C723.616 476.17 724.726 477.095 726.044 477.577C727.362 478.06 728.807 478.07 730.132 477.606C731.457 477.142 732.579 476.232 733.308 475.033C734.037 473.834 734.327 472.419 734.128 471.03C733.929 469.64 733.255 468.363 732.219 467.416L745.65 430.487L761.183 423.245L731.599 504.506L755.925 556.894L742.413 593.995L612.976 654.336L571.476 639.13L537.793 566.935L559.502 574.819L583.885 627.115L615.697 638.694L646.188 624.476C647.218 625.434 648.549 626.005 649.954 626.091C651.359 626.177 652.75 625.773 653.89 624.947C655.03 624.121 655.847 622.925 656.202 621.564C656.557 620.202 656.428 618.759 655.837 617.482C655.245 616.205 654.229 615.173 652.961 614.563C651.693 613.952 650.252 613.801 648.884 614.135C647.517 614.469 646.308 615.267 645.464 616.393C644.621 617.52 644.194 618.904 644.259 620.31L615.478 633.725L587.249 623.397L562.854 571.181L535.026 561.048L520.906 530.775C521.854 529.747 522.415 528.422 522.494 527.027C522.574 525.631 522.166 524.252 521.342 523.123C520.517 521.994 519.326 521.187 517.972 520.838C516.618 520.49 515.185 520.622 513.917 521.212C512.649 521.802 511.626 522.813 511.021 524.073C510.416 525.333 510.268 526.764 510.601 528.122C510.934 529.479 511.728 530.679 512.847 531.517C513.967 532.354 515.342 532.777 516.739 532.714L568.169 642.78L613.309 659.213L746.167 597.243L770.964 585.675L877.05 624.315L940.937 761.303L919.125 821.264L864.193 846.879C863.164 845.923 861.835 845.354 860.433 845.269C859.031 845.184 857.643 845.588 856.506 846.413C855.37 847.237 854.555 848.431 854.201 849.789C853.846 851.148 853.975 852.588 854.565 853.862C855.155 855.136 856.17 856.166 857.435 856.775C858.7 857.385 860.138 857.536 861.502 857.204C862.867 856.871 864.074 856.075 864.916 854.951C865.759 853.828 866.185 852.447 866.122 851.044L922.787 824.65L945.896 761.257L897.898 658.547L919.607 666.374L937.619 704.864C936.683 705.894 936.133 707.216 936.063 708.605C935.993 709.995 936.407 711.365 937.234 712.484C938.061 713.602 939.251 714.399 940.601 714.74C941.95 715.08 943.375 714.941 944.634 714.349C945.893 713.756 946.908 712.745 947.505 711.488C948.102 710.232 948.244 708.807 947.909 707.457C947.573 706.107 946.779 704.915 945.663 704.085C944.546 703.254 943.176 702.836 941.786 702.902L922.936 662.576L895.384 652.534V652.752L880.793 621.48L880.38 620.631L770.665 580.706L748.36 591.127L753.836 576.116L766.728 570.114L773.811 550.582L753.239 506.618L786.967 413.938L868.073 376.137C869.101 377.113 870.437 377.702 871.851 377.801C873.266 377.901 874.671 377.505 875.825 376.683C876.98 375.86 877.812 374.661 878.179 373.292C878.546 371.923 878.426 370.469 877.838 369.179C877.249 367.889 876.231 366.844 874.956 366.223C873.682 365.602 872.231 365.444 870.852 365.775C869.473 366.107 868.253 366.907 867.4 368.04C866.548 369.173 866.116 370.566 866.179 371.982L783.305 410.576L748.337 506.836L768.909 550.789L763.088 566.798L756.086 570.045L761.034 556.607L736.57 504.311L772.33 406.135L879.094 356.444V356.593L879.989 356.169L895.751 361.907L904.935 381.611L948.307 397.367L976.146 457.042L957.169 509.131C955.784 509.24 954.48 509.824 953.476 510.784C952.472 511.744 951.831 513.021 951.661 514.4C951.491 515.778 951.802 517.173 952.542 518.348C953.283 519.523 954.406 520.406 955.723 520.849C957.04 521.291 958.47 521.265 959.769 520.775C961.069 520.284 962.16 519.36 962.857 518.159C963.553 516.958 963.814 515.552 963.593 514.181C963.373 512.81 962.685 511.557 961.647 510.634L981.22 456.766L951.751 393.649L908.379 377.881L901.939 364.053L960.315 385.306L995.903 461.632L972.277 526.517L898.943 560.658L874.089 551.615C874.032 550.218 873.491 548.885 872.56 547.842C871.629 546.799 870.365 546.111 868.983 545.897C867.602 545.682 866.188 545.953 864.984 546.664C863.78 547.375 862.86 548.481 862.382 549.795C861.903 551.108 861.895 552.547 862.359 553.865C862.823 555.184 863.731 556.3 864.927 557.025C866.123 557.749 867.534 558.035 868.918 557.836C870.302 557.636 871.573 556.962 872.516 555.93L899.161 565.627L975.951 529.834L982.196 512.7L990.852 531.36L981.519 556.951L945.414 573.786C944.386 572.848 943.065 572.295 941.675 572.221C940.285 572.147 938.913 572.557 937.792 573.382C936.671 574.206 935.87 575.394 935.527 576.742C935.183 578.09 935.318 579.516 935.909 580.776C936.499 582.036 937.508 583.052 938.764 583.652C940.02 584.252 941.445 584.397 942.796 584.064C944.148 583.731 945.342 582.94 946.175 581.825C947.008 580.711 947.429 579.342 947.366 577.952L985.25 560.371L995.88 531.245L984.4 506.744L998.647 467.657L1007.54 486.604L1005.36 492.571C1004.17 492.623 1003.02 493.028 1002.05 493.734C1001.09 494.441 1000.35 495.418 999.946 496.542C999.538 497.665 999.473 498.885 999.759 500.045C1000.04 501.206 1000.67 502.256 1001.55 503.061C1002.44 503.867 1003.54 504.392 1004.72 504.571C1005.9 504.749 1007.11 504.573 1008.19 504.064C1009.28 503.555 1010.18 502.736 1010.8 501.712C1011.41 500.687 1011.71 499.503 1011.65 498.309C1011.58 496.701 1010.88 495.187 1009.69 494.098L1012.51 486.363L972.025 399.651ZM885.924 568.347C884.894 567.971 883.782 567.883 882.705 568.09C881.628 568.298 880.628 568.794 879.812 569.526C878.996 570.258 878.394 571.198 878.07 572.245C877.747 573.293 877.715 574.408 877.977 575.472C878.238 576.537 878.785 577.51 879.557 578.288C880.329 579.066 881.299 579.62 882.361 579.89C883.424 580.16 884.54 580.136 885.59 579.821C886.641 579.506 887.585 578.912 888.324 578.101L900.516 582.542L953.014 558.076C954.042 559.023 955.367 559.584 956.763 559.664C958.159 559.743 959.539 559.336 960.668 558.511C961.797 557.687 962.605 556.496 962.954 555.142C963.302 553.789 963.17 552.356 962.58 551.089C961.99 549.822 960.978 548.799 959.718 548.195C958.457 547.59 957.026 547.441 955.668 547.774C954.31 548.107 953.109 548.901 952.272 550.02C951.434 551.139 951.01 552.514 951.074 553.91L900.309 577.573L889.885 573.786C889.844 572.587 889.447 571.427 888.746 570.453C888.046 569.478 887.072 568.734 885.948 568.312L885.924 568.347ZM535.704 550.513C536.163 551.513 536.887 552.369 537.797 552.989C538.707 553.608 539.769 553.967 540.868 554.028C541.967 554.089 543.062 553.849 544.035 553.333C545.008 552.818 545.822 552.047 546.388 551.103C546.955 550.16 547.254 549.079 547.252 547.979C547.25 546.878 546.948 545.799 546.377 544.858C545.807 543.916 544.991 543.148 544.016 542.636C543.042 542.124 541.946 541.888 540.847 541.952L526.99 512.218L515.224 507.938C515.475 506.731 515.395 505.479 514.99 504.315C514.586 503.151 513.873 502.118 512.927 501.327L516.98 490.242L545.152 477.148C546.179 478.086 547.501 478.639 548.891 478.713C550.28 478.787 551.653 478.377 552.774 477.552C553.895 476.728 554.696 475.54 555.039 474.192C555.383 472.844 555.248 471.418 554.657 470.158C554.067 468.898 553.058 467.882 551.802 467.282C550.546 466.682 549.121 466.537 547.769 466.87C546.418 467.203 545.224 467.994 544.391 469.109C543.558 470.223 543.137 471.592 543.2 472.982L513.467 486.856L508.875 499.4C507.587 499.012 506.214 499.009 504.924 499.393C503.635 499.776 502.486 500.528 501.62 501.557L490.53 497.54L477.328 469.505C478.273 468.478 478.832 467.156 478.91 465.764C478.989 464.371 478.581 462.995 477.758 461.869C476.935 460.743 475.746 459.938 474.395 459.591C473.044 459.243 471.614 459.375 470.349 459.963C469.084 460.552 468.063 461.561 467.459 462.818C466.856 464.076 466.707 465.503 467.039 466.858C467.37 468.213 468.162 469.41 469.278 470.247C470.395 471.083 471.767 471.506 473.161 471.444L487.04 501.19L499.921 505.86C500.096 508.404 501.095 510.821 502.768 512.746L498.819 523.901L470.796 536.983C469.769 536.039 468.445 535.48 467.052 535.402C465.659 535.324 464.281 535.732 463.155 536.556C462.029 537.38 461.224 538.569 460.877 539.921C460.531 541.272 460.664 542.702 461.254 543.966C461.845 545.23 462.856 546.25 464.115 546.852C465.374 547.454 466.802 547.601 468.158 547.267C469.513 546.933 470.71 546.14 471.545 545.022C472.38 543.904 472.801 542.531 472.736 541.137L502.469 527.263L507.165 514.398C507.789 514.4 508.41 514.319 509.013 514.158C510.169 513.864 511.229 513.274 512.089 512.448C512.365 512.275 512.629 512.092 512.893 511.897L523.765 515.856L536.84 543.869C536.011 544.738 535.46 545.834 535.258 547.018C535.055 548.201 535.211 549.418 535.704 550.513ZM212.128 171.372L101.61 222.773L89.8316 255.123L147.852 379.534L148.265 380.394L246.878 416.383L375.11 356.421C376.138 357.368 377.463 357.929 378.859 358.009C380.255 358.088 381.635 357.681 382.764 356.856C383.893 356.032 384.701 354.841 385.05 353.488C385.398 352.134 385.267 350.702 384.676 349.435C384.086 348.167 383.075 347.144 381.814 346.54C380.553 345.935 379.122 345.787 377.764 346.12C376.406 346.453 375.206 347.246 374.368 348.365C373.53 349.484 373.107 350.859 373.17 352.255L367.889 354.723L343.437 345.817L247.888 390.367L181.901 366.371C181.85 364.975 181.316 363.64 180.391 362.594C179.465 361.547 178.205 360.854 176.826 360.632C175.446 360.411 174.032 360.674 172.825 361.378C171.618 362.081 170.693 363.181 170.206 364.491C169.72 365.8 169.703 367.238 170.158 368.558C170.613 369.879 171.512 371.001 172.702 371.733C173.892 372.465 175.299 372.762 176.683 372.573C178.068 372.384 179.344 371.721 180.294 370.697L248.084 395.347L343.62 350.798L361.988 357.477L246.545 411.287L151.594 376.791L111.942 291.869H112.172L124.628 257.602L114.605 236.188L135.407 226.514C136.435 227.467 137.762 228.034 139.161 228.117C140.561 228.201 141.946 227.796 143.08 226.972C144.214 226.148 145.026 224.955 145.378 223.599C145.73 222.242 145.6 220.806 145.01 219.534C144.42 218.263 143.406 217.236 142.143 216.629C140.879 216.022 139.444 215.873 138.082 216.206C136.72 216.54 135.517 217.336 134.677 218.458C133.838 219.581 133.414 220.96 133.479 222.36L108.567 233.973L119.749 257.958L109.417 286.315L94.9288 254.997L105.261 226.204L212.335 176.284L276.83 199.763L287.391 222.394L297.574 226.204C297.634 227.6 298.176 228.932 299.108 229.973C300.041 231.014 301.305 231.7 302.687 231.912C304.068 232.125 305.481 231.853 306.684 231.141C307.886 230.429 308.805 229.322 309.282 228.008C309.76 226.695 309.767 225.257 309.302 223.939C308.837 222.621 307.929 221.506 306.733 220.782C305.537 220.059 304.127 219.773 302.744 219.972C301.36 220.172 300.089 220.845 299.147 221.878L290.743 218.836L282.937 202.059L314.725 213.638C314.777 215.041 315.315 216.382 316.247 217.432C317.179 218.482 318.446 219.177 319.833 219.397C321.22 219.616 322.64 219.348 323.851 218.637C325.062 217.927 325.989 216.818 326.473 215.5C326.956 214.182 326.968 212.737 326.504 211.412C326.041 210.087 325.131 208.964 323.931 208.235C322.731 207.505 321.315 207.215 319.925 207.414C318.535 207.612 317.257 208.287 316.309 209.323L212.128 171.372ZM119.45 162.375C120.524 161.862 121.424 161.045 122.036 160.024C122.649 159.004 122.947 157.826 122.894 156.637L163.074 137.931L210.326 155.065L130.31 192.396C129.279 191.443 127.949 190.877 126.547 190.796C125.145 190.715 123.758 191.123 122.624 191.95C121.489 192.777 120.677 193.972 120.326 195.332C119.975 196.691 120.108 198.13 120.7 199.403C121.293 200.675 122.309 201.703 123.576 202.309C124.842 202.916 126.28 203.064 127.644 202.729C129.007 202.394 130.212 201.595 131.052 200.47C131.893 199.346 132.316 197.964 132.25 196.562L222.449 154.514L286.289 177.718C286.34 179.124 286.879 180.469 287.812 181.522C288.745 182.575 290.015 183.271 291.405 183.492C292.794 183.713 294.218 183.445 295.432 182.732C296.645 182.02 297.574 180.909 298.059 179.588C298.544 178.268 298.555 176.82 298.09 175.492C297.625 174.164 296.714 173.039 295.511 172.308C294.308 171.578 292.889 171.288 291.496 171.487C290.103 171.687 288.822 172.364 287.873 173.403L283.718 171.888L271.09 144.886L222.873 127.327L217.524 129.829C216.503 128.882 215.184 128.318 213.793 128.234C212.402 128.15 211.025 128.552 209.897 129.37C208.77 130.189 207.961 131.373 207.61 132.721C207.259 134.069 207.387 135.497 207.972 136.761C208.557 138.025 209.563 139.047 210.818 139.653C212.073 140.258 213.499 140.409 214.853 140.079C216.207 139.75 217.405 138.961 218.242 137.847C219.078 136.733 219.502 135.364 219.441 133.972L223.057 132.262L267.76 148.523L277.587 169.685L222.288 149.545L216.227 152.379L162.879 132.962L120.977 152.54C120.169 151.793 119.174 151.28 118.097 151.056C117.019 150.832 115.902 150.905 114.863 151.267C113.824 151.63 112.904 152.268 112.2 153.114C111.497 153.959 111.037 154.98 110.87 156.067C110.703 157.154 110.834 158.266 111.251 159.284C111.668 160.302 112.354 161.187 113.236 161.845C114.118 162.502 115.162 162.908 116.257 163.017C117.351 163.127 118.455 162.937 119.45 162.467V162.375ZM128.14 445.073C129.169 445.447 130.28 445.536 131.355 445.328C132.429 445.121 133.428 444.625 134.242 443.894C135.057 443.163 135.658 442.225 135.98 441.179C136.302 440.133 136.334 439.019 136.072 437.957C135.81 436.895 135.264 435.923 134.493 435.147C133.721 434.371 132.753 433.819 131.692 433.55C130.631 433.281 129.517 433.306 128.468 433.621C127.42 433.937 126.477 434.531 125.741 435.341L113.549 430.9L61.0398 455.366C60.0131 454.422 58.6905 453.863 57.2976 453.785C55.9047 453.706 54.5277 454.113 53.4015 454.937C52.2753 455.76 51.4697 456.948 51.122 458.299C50.7743 459.649 50.9061 461.079 51.495 462.343C52.0838 463.607 53.0932 464.628 54.3509 465.232C55.6087 465.835 57.0369 465.984 58.392 465.652C59.7471 465.32 60.9452 464.529 61.7818 463.413C62.6185 462.297 63.0419 460.925 62.9799 459.532L113.71 435.857L124.134 439.644C124.181 440.845 124.587 442.003 125.299 442.97C126.011 443.938 126.997 444.67 128.129 445.073H128.14ZM134.305 662.335H134.512L219.82 622.559L213.942 638.625L175.312 656.642C174.285 655.66 172.948 655.066 171.531 654.962C170.113 654.857 168.704 655.249 167.544 656.071C166.384 656.892 165.547 658.091 165.175 659.463C164.804 660.834 164.921 662.292 165.508 663.586C166.094 664.88 167.113 665.93 168.39 666.555C169.666 667.18 171.12 667.341 172.502 667.011C173.885 666.681 175.109 665.881 175.965 664.747C176.821 663.613 177.256 662.216 177.195 660.797L217.558 641.953L225.64 619.724L245.351 610.544L250.609 596.096L272.042 586.112L286.14 547.426C287.537 547.369 288.871 546.829 289.914 545.898C290.958 544.968 291.645 543.704 291.86 542.323C292.075 540.941 291.804 539.528 291.093 538.325C290.381 537.121 289.274 536.202 287.961 535.723C286.647 535.245 285.208 535.237 283.889 535.701C282.57 536.165 281.453 537.072 280.728 538.268C280.004 539.464 279.717 540.874 279.917 542.257C280.117 543.641 280.79 544.912 281.823 545.854L268.392 582.795L252.836 590.025L282.466 508.913L258.071 456.617L271.583 419.504L401.124 359.221L442.681 374.335L476.364 446.438L454.666 438.566L430.26 386.27L398.414 374.702L367.855 388.978C366.827 388.025 365.5 387.458 364.1 387.375C362.701 387.291 361.316 387.696 360.182 388.52C359.048 389.344 358.236 390.537 357.884 391.893C357.532 393.25 357.662 394.686 358.252 395.958C358.842 397.229 359.856 398.256 361.119 398.863C362.383 399.47 363.818 399.619 365.18 399.286C366.541 398.952 367.745 398.156 368.585 397.034C369.424 395.911 369.848 394.533 369.783 393.133L398.564 379.717L426.793 390.046L451.222 442.295L479.027 452.406L493.147 482.702C492.194 483.733 491.628 485.063 491.547 486.464C491.466 487.866 491.874 489.252 492.701 490.386C493.529 491.52 494.725 492.332 496.084 492.682C497.444 493.033 498.884 492.901 500.157 492.308C501.43 491.716 502.458 490.7 503.064 489.434C503.671 488.168 503.82 486.731 503.484 485.367C503.149 484.004 502.35 482.8 501.225 481.96C500.1 481.12 498.717 480.697 497.315 480.763L445.896 370.697L400.71 354.264L267.852 416.234L243.055 427.79L137.026 389.162L73.1741 252.139L94.9862 192.258L149.929 166.552C150.958 167.499 152.283 168.061 153.679 168.14C155.075 168.219 156.455 167.812 157.584 166.987C158.713 166.163 159.521 164.972 159.869 163.619C160.218 162.265 160.086 160.833 159.496 159.566C158.906 158.298 157.894 157.275 156.633 156.671C155.373 156.066 153.941 155.918 152.583 156.251C151.225 156.584 150.025 157.377 149.187 158.496C148.35 159.615 147.926 160.99 147.989 162.386L91.324 188.896L68.2033 252.3L116.109 354.998L94.4351 347.172L76.4115 308.544C77.3941 307.517 77.9886 306.181 78.0929 304.764C78.1973 303.347 77.805 301.938 76.9834 300.779C76.1618 299.619 74.9621 298.782 73.5903 298.411C72.2185 298.039 70.7602 298.157 69.4656 298.743C68.171 299.329 67.121 300.348 66.4957 301.624C65.8705 302.9 65.709 304.353 66.039 305.735C66.3691 307.117 67.17 308.341 68.3044 309.197C69.4388 310.053 70.8358 310.487 72.2557 310.426L91.1059 350.786L118.658 360.874V360.656L133.226 391.916L133.639 392.777L243.342 432.667L265.717 422.235L260.241 437.257L247.36 443.271L240.22 462.78L260.792 506.744L227.064 599.424L145.854 637.26C144.822 636.313 143.493 635.753 142.094 635.676C140.695 635.599 139.313 636.01 138.183 636.839C137.054 637.667 136.247 638.862 135.901 640.219C135.554 641.576 135.69 643.011 136.284 644.28C136.878 645.548 137.894 646.571 139.159 647.174C140.423 647.777 141.858 647.922 143.218 647.585C144.578 647.248 145.779 646.45 146.615 645.327C147.452 644.203 147.873 642.824 147.806 641.425L230.622 602.82L265.682 506.56L245.11 462.654L250.942 446.645L257.933 443.397L253.031 456.858L277.415 509.154L241.712 607.353L134.948 657.033V656.883L134.053 657.297L118.268 651.559L109.084 631.855L65.758 616.144L37.942 556.458L56.8725 504.392C58.2758 504.339 59.6174 503.801 60.6681 502.87C61.7188 501.939 62.4134 500.672 62.6333 499.285C62.8533 497.899 62.5848 496.479 61.8738 495.269C61.1628 494.058 60.0534 493.132 58.7351 492.648C57.4169 492.165 55.9715 492.153 54.6459 492.617C53.3204 493.08 52.1969 493.989 51.4674 495.189C50.7379 496.388 50.4476 497.804 50.6461 499.193C50.8447 500.583 51.5198 501.861 52.556 502.808L32.9482 556.687L62.3829 619.805L105.743 635.584L112.183 649.424L53.8074 628.171L18.2193 551.753L41.8337 486.845L115.179 452.578L140.034 461.621C140.091 463.017 140.631 464.351 141.562 465.394C142.493 466.437 143.757 467.124 145.139 467.339C146.521 467.554 147.934 467.283 149.138 466.572C150.342 465.861 151.262 464.754 151.741 463.441C152.219 462.128 152.227 460.689 151.763 459.37C151.299 458.052 150.391 456.935 149.195 456.211C147.999 455.487 146.589 455.2 145.205 455.4C143.821 455.6 142.549 456.273 141.606 457.306L114.858 447.758L38.1601 483.551L31.915 500.685L23.2246 482.082L32.5578 456.376L68.5936 439.656C69.6226 440.597 70.9465 441.153 72.3394 441.228C73.7323 441.302 75.108 440.892 76.2319 440.066C77.3559 439.24 78.1585 438.05 78.503 436.699C78.8474 435.348 78.7123 433.919 78.1207 432.656C77.5291 431.393 76.5176 430.375 75.2588 429.774C73.9999 429.173 72.5716 429.028 71.2174 429.362C69.8632 429.697 68.6669 430.49 67.8326 431.608C66.9982 432.725 66.5775 434.097 66.642 435.49L28.8842 453.129L18.2538 482.254L29.7338 506.756L15.4641 545.923L6.55562 526.77L8.69091 520.871C10.094 520.854 11.4477 520.351 12.5213 519.448C13.5948 518.545 14.3216 517.297 14.5777 515.918C14.8338 514.539 14.6034 513.114 13.9257 511.886C13.248 510.657 12.165 509.702 10.8615 509.183C9.55794 508.664 8.11462 508.613 6.7777 509.039C5.44078 509.465 4.29308 510.341 3.53035 511.518C2.76763 512.696 2.43714 514.101 2.59525 515.495C2.75336 516.889 3.39029 518.184 4.39738 519.161L1.56182 526.988L42.0518 613.768L21.4796 606.286L10.5507 582.852C11.5301 581.824 12.1211 580.487 12.2222 579.07C12.3233 577.654 11.9283 576.246 11.1048 575.089C10.2814 573.932 9.0809 573.098 7.70919 572.728C6.33748 572.359 4.88005 572.479 3.58686 573.067C2.29366 573.654 1.24527 574.673 0.621496 575.949C-0.00227969 577.225 -0.162575 578.678 0.168101 580.059C0.498777 581.44 1.29982 582.663 2.43385 583.518C3.56788 584.373 4.96423 584.807 6.38342 584.746L18.116 609.993L44.83 619.724L50.4781 631.855L128.267 660.166L114.64 666.546L86.3762 656.447C86.3163 655.041 85.7697 653.7 84.8297 652.652C83.8896 651.604 82.6147 650.916 81.2229 650.704C79.831 650.492 78.4088 650.77 77.1995 651.491C75.9901 652.211 75.0688 653.329 74.593 654.654C74.1173 655.978 74.1167 657.427 74.5913 658.752C75.066 660.077 75.9864 661.196 77.1952 661.918C78.404 662.639 79.826 662.918 81.218 662.708C82.61 662.497 83.8855 661.809 84.8263 660.762L114.858 671.538L134.305 662.335ZM358.671 632.497C358.209 631.498 357.484 630.644 356.573 630.027C355.662 629.409 354.599 629.052 353.5 628.993C352.401 628.935 351.307 629.177 350.335 629.694C349.364 630.211 348.552 630.983 347.986 631.927C347.421 632.871 347.124 633.952 347.128 635.052C347.132 636.152 347.435 637.231 348.006 638.171C348.578 639.112 349.395 639.879 350.37 640.389C351.344 640.9 352.44 641.135 353.539 641.07L355.984 646.349L347.087 670.792L391.653 766.306L367.659 832.27C366.262 832.324 364.926 832.862 363.881 833.792C362.836 834.721 362.146 835.984 361.929 837.366C361.712 838.747 361.982 840.161 362.692 841.366C363.402 842.571 364.509 843.492 365.823 843.971C367.137 844.451 368.576 844.46 369.896 843.997C371.216 843.533 372.334 842.626 373.059 841.43C373.784 840.235 374.071 838.824 373.872 837.44C373.672 836.056 372.998 834.784 371.964 833.842L396.646 766.077L352.081 670.574L358.739 652.213L412.512 767.615L377.957 862.509L292.947 902.135L293.028 901.917L258.749 889.454L237.258 899.553L227.592 878.828C228.545 877.797 229.111 876.467 229.192 875.066C229.274 873.664 228.866 872.278 228.038 871.144C227.21 870.01 226.015 869.198 224.655 868.847C223.295 868.497 221.856 868.629 220.583 869.221C219.309 869.814 218.282 870.83 217.675 872.096C217.068 873.362 216.919 874.799 217.255 876.162C217.591 877.525 218.389 878.73 219.514 879.57C220.64 880.41 222.022 880.833 223.425 880.767L235.031 905.67L259.024 894.492L287.368 904.821L256.062 919.361L227.362 908.917L177.413 801.928L200.878 737.467L223.539 726.898L227.247 716.719C228.645 716.664 229.981 716.126 231.026 715.197C232.071 714.268 232.761 713.004 232.977 711.623C233.194 710.241 232.925 708.828 232.215 707.623C231.504 706.418 230.398 705.497 229.084 705.017C227.77 704.537 226.33 704.529 225.011 704.992C223.691 705.455 222.573 706.362 221.848 707.558C221.123 708.754 220.836 710.164 221.035 711.549C221.235 712.933 221.909 714.204 222.942 715.147L219.877 723.536L203.105 731.351L214.677 699.574C216.084 699.528 217.432 698.994 218.489 698.064C219.547 697.134 220.248 695.865 220.472 694.476C220.697 693.086 220.432 691.661 219.722 690.445C219.012 689.23 217.901 688.298 216.58 687.811C215.258 687.324 213.809 687.31 212.479 687.774C211.149 688.237 210.021 689.148 209.289 690.351C208.557 691.553 208.266 692.973 208.466 694.367C208.665 695.76 209.343 697.041 210.383 697.99L172.499 802.157L223.918 912.613L256.28 924.387L381.596 865.975L417.437 767.5L357.637 639.13C358.445 638.25 358.973 637.15 359.155 635.969C359.337 634.788 359.165 633.58 358.659 632.497H358.671ZM157.77 891.222L139.023 851.056L156.163 803.81L193.462 883.739C192.508 884.767 191.941 886.094 191.858 887.494C191.775 888.893 192.181 890.278 193.006 891.412C193.832 892.545 195.025 893.357 196.383 893.707C197.741 894.058 199.178 893.927 200.45 893.335C201.721 892.744 202.748 891.729 203.354 890.465C203.959 889.2 204.107 887.765 203.771 886.404C203.435 885.042 202.637 883.84 201.512 883.003C200.388 882.165 199.007 881.744 197.606 881.811L155.612 791.576L178.825 727.828C180.231 727.776 181.576 727.238 182.63 726.306C183.683 725.373 184.38 724.103 184.601 722.714C184.822 721.324 184.553 719.901 183.841 718.688C183.128 717.475 182.017 716.547 180.696 716.062C179.374 715.577 177.926 715.566 176.597 716.031C175.269 716.495 174.143 717.407 173.413 718.609C172.682 719.811 172.392 721.23 172.592 722.623C172.792 724.015 173.469 725.295 174.508 726.244L172.993 730.41L145.98 743.033L128.416 791.37L130.896 796.763C129.948 797.795 129.388 799.124 129.311 800.522C129.235 801.92 129.646 803.302 130.475 804.431C131.304 805.56 132.499 806.367 133.856 806.713C135.214 807.06 136.649 806.924 137.918 806.33C139.187 805.736 140.21 804.721 140.813 803.456C141.416 802.192 141.562 800.758 141.225 799.399C140.888 798.039 140.089 796.839 138.965 796.002C137.842 795.166 136.462 794.745 135.063 794.812L133.352 791.198L149.62 746.51L170.731 736.675L150.595 791.863L153.431 797.934L134.007 851.285L153.523 893.15C152.587 894.178 152.037 895.499 151.966 896.887C151.895 898.276 152.307 899.646 153.132 900.764C153.958 901.883 155.146 902.681 156.494 903.023C157.842 903.365 159.266 903.23 160.526 902.64C161.785 902.051 162.801 901.043 163.401 899.789C164.001 898.534 164.147 897.111 163.816 895.761C163.484 894.411 162.695 893.218 161.582 892.384C160.47 891.55 159.102 891.127 157.713 891.187L157.77 891.222ZM456.584 953.077C455.838 953.881 455.325 954.874 455.1 955.947C454.875 957.021 454.946 958.135 455.306 959.171C455.666 960.207 456.302 961.126 457.144 961.829C457.986 962.532 459.004 962.993 460.088 963.162C461.172 963.332 462.281 963.203 463.298 962.79C464.315 962.378 465.2 961.696 465.859 960.819C466.518 959.942 466.926 958.903 467.039 957.812C467.153 956.721 466.967 955.62 466.502 954.626C465.998 953.545 465.182 952.64 464.159 952.027C463.136 951.413 461.953 951.12 460.762 951.183L437.171 900.379L440.959 889.959C442.052 889.913 443.112 889.57 444.025 888.968C444.938 888.365 445.669 887.526 446.142 886.54C446.614 885.553 446.808 884.457 446.704 883.368C446.601 882.28 446.202 881.24 445.553 880.36C444.903 879.481 444.026 878.795 443.015 878.375C442.005 877.956 440.9 877.82 439.818 877.98C438.736 878.141 437.718 878.594 436.873 879.289C436.029 879.984 435.39 880.896 435.024 881.926C434.621 883.053 434.56 884.274 434.848 885.435C435.136 886.597 435.76 887.647 436.643 888.456L432.2 900.655L456.584 953.077ZM663.603 879.849L663.695 879.642L623.974 794.365L640.046 800.241L658.092 838.914C657.145 839.943 656.583 841.268 656.504 842.664C656.425 844.06 656.834 845.44 657.659 846.568C658.485 847.697 659.677 848.504 661.032 848.851C662.387 849.199 663.82 849.066 665.088 848.474C666.355 847.883 667.378 846.87 667.981 845.608C668.584 844.347 668.731 842.915 668.396 841.558C668.06 840.201 667.264 839.001 666.143 838.166C665.022 837.33 663.645 836.909 662.248 836.975L643.398 796.58L621.127 788.489L611.943 768.785L597.501 763.529L587.502 742.104L548.802 728.011C548.743 726.614 548.2 725.282 547.266 724.241C546.333 723.2 545.067 722.515 543.685 722.303C542.302 722.091 540.889 722.365 539.687 723.079C538.484 723.793 537.567 724.902 537.091 726.216C536.615 727.531 536.611 728.97 537.078 730.288C537.546 731.605 538.457 732.72 539.655 733.441C540.853 734.162 542.264 734.445 543.648 734.242C545.031 734.038 546.301 733.361 547.241 732.326L584.184 745.753L591.416 761.303L510.138 731.661L457.823 756.035L420.663 742.517L360.289 613.137L375.454 571.663L447.687 538.039L439.742 559.728L387.405 584.069L375.833 615.869L390.068 646.349C389.126 647.374 388.569 648.695 388.493 650.086C388.416 651.476 388.825 652.85 389.649 653.973C390.473 655.095 391.661 655.898 393.011 656.242C394.361 656.587 395.788 656.452 397.05 655.862C398.311 655.271 399.329 654.262 399.929 653.005C400.529 651.748 400.673 650.322 400.338 648.97C400.004 647.618 399.21 646.425 398.093 645.593C396.975 644.761 395.604 644.343 394.213 644.409L380.793 615.639L391.125 587.42L443.439 563.045L453.541 535.25L483.849 521.135C484.881 522.082 486.21 522.642 487.609 522.719C489.007 522.795 490.39 522.384 491.519 521.556C492.649 520.727 493.456 519.532 493.802 518.175C494.149 516.818 494.013 515.383 493.419 514.115C492.825 512.846 491.809 511.824 490.544 511.221C489.279 510.618 487.845 510.473 486.485 510.81C485.125 511.146 483.924 511.945 483.087 513.068C482.251 514.191 481.83 515.57 481.897 516.969L371.792 568.37L355.387 613.436L417.379 746.235L428.963 771.069L390.367 877.095L253.25 940.947L193.255 919.142L167.666 864.322C168.619 863.291 169.185 861.962 169.266 860.56C169.348 859.159 168.94 857.772 168.112 856.638C167.285 855.504 166.089 854.692 164.729 854.342C163.369 853.991 161.93 854.123 160.657 854.716C159.384 855.308 158.356 856.324 157.749 857.59C157.142 858.856 156.994 860.294 157.329 861.657C157.665 863.02 158.463 864.224 159.589 865.064C160.714 865.904 162.096 866.327 163.499 866.262L189.903 922.907L253.318 946.008L356.053 898.119L348.178 919.785L309.536 937.814C308.508 936.869 307.185 936.31 305.791 936.233C304.397 936.155 303.019 936.564 301.893 937.389C300.767 938.214 299.963 939.404 299.617 940.757C299.271 942.109 299.406 943.539 299.998 944.803C300.59 946.067 301.602 947.086 302.862 947.687C304.123 948.287 305.552 948.432 306.907 948.096C308.262 947.76 309.459 946.964 310.292 945.844C311.125 944.725 311.544 943.351 311.476 941.957L351.84 923.113L361.874 895.571H361.678L393.822 880.595L433.727 770.943L423.395 748.496L438.422 753.993L444.438 766.88L464.011 774.007L507.968 753.442L600.681 787.169L638.496 868.247C637.548 869.279 636.988 870.607 636.912 872.005C636.835 873.404 637.246 874.786 638.075 875.915C638.904 877.044 640.099 877.85 641.456 878.197C642.814 878.543 644.25 878.408 645.518 877.814C646.787 877.22 647.81 876.204 648.413 874.94C649.016 873.676 649.162 872.242 648.825 870.882C648.488 869.523 647.689 868.322 646.566 867.486C645.442 866.649 644.063 866.229 642.663 866.296L604.044 783.52L507.761 748.473L463.782 769.038L447.778 763.173L444.507 756.162L457.984 761.062L510.287 736.687L608.499 772.434L658.207 879.16H658.046L658.46 880.056L652.72 895.823L633.008 905.004L617.223 948.349L557.527 976.178L505.42 957.208C505.36 955.811 504.817 954.479 503.883 953.438C502.95 952.397 501.684 951.712 500.302 951.5C498.919 951.288 497.506 951.562 496.304 952.276C495.101 952.99 494.184 954.099 493.708 955.413C493.232 956.728 493.228 958.167 493.696 959.484C494.163 960.802 495.074 961.917 496.272 962.638C497.47 963.359 498.881 963.642 500.265 963.439C501.648 963.235 502.918 962.558 503.858 961.523L557.745 981.147L620.885 951.711L636.671 908.367L650.447 901.917L629.208 960.284L552.832 995.859L487.958 972.219L453.874 898.968L462.932 874.122C464.329 874.063 465.661 873.521 466.703 872.589C467.744 871.657 468.43 870.392 468.643 869.011C468.856 867.63 468.583 866.218 467.87 865.016C467.158 863.814 466.051 862.896 464.737 862.418C463.423 861.941 461.985 861.934 460.666 862.399C459.348 862.864 458.232 863.771 457.508 864.967C456.785 866.162 456.498 867.572 456.698 868.955C456.898 870.338 457.572 871.608 458.604 872.55L448.926 899.197L484.733 975.96L501.872 982.191L483.24 990.878L457.674 981.56L440.89 945.457C441.838 944.425 442.398 943.097 442.475 941.698C442.551 940.3 442.14 938.918 441.311 937.789C440.483 936.66 439.287 935.853 437.93 935.507C436.572 935.161 435.137 935.296 433.868 935.89C432.599 936.484 431.576 937.5 430.973 938.764C430.37 940.028 430.224 941.462 430.561 942.822C430.898 944.181 431.697 945.381 432.821 946.218C433.944 947.054 435.324 947.475 436.723 947.408L454.288 985.278L483.366 995.87L507.876 984.395L547 998.625L527.932 1007.47L521.997 1005.32C521.95 1003.91 521.416 1002.56 520.486 1001.5C519.556 1000.45 518.287 999.746 516.896 999.522C515.506 999.297 514.081 999.562 512.865 1000.27C511.649 1000.98 510.717 1002.09 510.23 1003.41C509.742 1004.73 509.729 1006.18 510.192 1007.51C510.656 1008.84 511.567 1009.97 512.77 1010.7C513.973 1011.43 515.393 1011.72 516.787 1011.52C518.182 1011.32 519.463 1010.65 520.412 1009.61L528.161 1012.44L614.985 972.035L607.511 992.6L584.023 1003.52C582.995 1002.58 581.67 1002.02 580.274 1001.94C578.878 1001.86 577.498 1002.27 576.369 1003.09C575.24 1003.91 574.432 1005.1 574.083 1006.46C573.735 1007.81 573.867 1009.24 574.457 1010.51C575.047 1011.78 576.059 1012.8 577.319 1013.41C578.58 1014.01 580.011 1014.16 581.369 1013.83C582.727 1013.49 583.927 1012.7 584.765 1011.58C585.603 1010.46 586.027 1009.09 585.963 1007.69L611.219 995.962L620.931 969.281L633.066 963.623L661.421 885.885L667.885 899.656L657.805 927.91C656.414 927.977 655.089 928.525 654.057 929.46C653.025 930.395 652.35 931.659 652.146 933.036C651.942 934.413 652.222 935.818 652.939 937.012C653.656 938.206 654.765 939.113 656.077 939.581C657.389 940.048 658.822 940.046 660.133 939.575C661.443 939.103 662.55 938.192 663.263 936.996C663.976 935.801 664.252 934.394 664.044 933.018C663.836 931.641 663.157 930.38 662.122 929.448L672.787 899.312L663.603 879.849Z" fill="#919BFF" fill-opacity="0.5"/>
</svg>
